<?xml version="1.0" standalone="no"?>
<!DOCTYPE svg PUBLIC "-//W3C//DTD SVG 1.1//EN" "http://www.w3.org/Graphics/SVG/1.1/DTD/svg11.dtd" >
<svg xmlns="http://www.w3.org/2000/svg" xmlns:xlink="http://www.w3.org/1999/xlink" version="1.1">
<metadata>
Created by FontForge 20190801 at Mon Oct 31 21:21:49 2022
 By www-data
Thoro (c) Drizy Studio 2021
</metadata>
<defs>
<font id="Thoro" horiz-adv-x="0" >
  <font-face 
    font-family="Thoro"
    font-weight="400"
    font-stretch="normal"
    units-per-em="1000"
    panose-1="0 0 0 0 0 0 0 0 0 0"
    ascent="750"
    descent="-250"
    x-height="560"
    cap-height="700"
    bbox="-168 -242 1184 989"
    underline-thickness="50"
    underline-position="-125"
    unicode-range="U+000D-FB06"
  />
<missing-glyph horiz-adv-x="250" 
 />
    <glyph glyph-name=".notdef" horiz-adv-x="250" 
 />
    <glyph glyph-name=".null" 
 />
    <glyph glyph-name=".null" 
 />
    <glyph glyph-name="uni000D" unicode="&#xd;" horiz-adv-x="250" 
 />
    <glyph glyph-name="space" unicode=" " horiz-adv-x="260" 
 />
    <glyph glyph-name="exclam" unicode="!" horiz-adv-x="240" 
d="M30 700h180l-50 -450h-80zM40 65q0 36 22 58t58 22t58 -22t22 -58t-22 -58t-58 -22t-58 22t-22 58z" />
    <glyph glyph-name="quotedbl" unicode="&#x22;" horiz-adv-x="358" 
d="M30 715h120l-30 -253h-60zM208 715h120l-30 -253h-60z" />
    <glyph glyph-name="numbersign" unicode="#" horiz-adv-x="619" 
d="M296 700h64l-68 -223h131l68 223h64l-68 -223h102v-60h-121l-46 -152h167v-60h-185l-63 -205h-64l63 205h-131l-63 -205h-64l63 205h-115v60h133l46 152h-179v60h198zM227 265h131l46 152h-131z" />
    <glyph glyph-name="dollar" unicode="$" horiz-adv-x="605" 
d="M38 513q0 52 22 90t60 63t89 37t109 12q68 0 116.5 -20.5t94.5 -53.5l20 -191h-10q-4 11 -12.5 31.5t-18 43t-20.5 44t-21 33.5q-29 20 -66.5 34t-91.5 14q-55 0 -89.5 -23t-34.5 -65q0 -24 11.5 -42.5t31.5 -32t48.5 -23.5t62.5 -18q77 -18 123.5 -45t71.5 -58.5
t33 -65.5t8 -66q0 -61 -22 -104t-62 -70t-96.5 -39.5t-125.5 -12.5q-37 0 -66 5.5t-54 15t-47 23.5t-46 30l-20 191h10q5 -10 13 -31t17.5 -43.5t20.5 -44t21 -33.5q29 -20 64 -34t85 -14q28 0 55.5 7.5t49 22t35 34.5t13.5 44t-10.5 40.5t-29 28t-43.5 20t-53 17.5
q-66 21 -113 48.5t-76.5 59.5t-43 68t-13.5 73zM271 809h70v-953h-70v953z" />
    <glyph glyph-name="percent" unicode="%" horiz-adv-x="769" 
d="M30 535q0 83 37 133t99 50q61 0 98 -50t37 -133q0 -82 -37 -132t-98 -50q-62 0 -99 50t-37 132zM533 693h86l-402 -700h-86zM123 536q0 -69 11.5 -110t31.5 -41q19 0 31 41t12 110q0 67 -12 108t-31 41q-20 0 -31.5 -41t-11.5 -108zM468 175q0 83 37 133t99 50
q61 0 98 -50t37 -133q0 -41 -9.5 -74.5t-27.5 -57.5t-43 -37.5t-55 -13.5q-62 0 -99 50.5t-37 132.5zM561 176q0 -69 11.5 -110t31.5 -41q19 0 31 41t12 110q0 67 -12 108t-31 41q-20 0 -31.5 -41t-11.5 -108z" />
    <glyph glyph-name="ampersand" unicode="&#x26;" horiz-adv-x="737" 
d="M67 525q0 43 17 78t48.5 60t75.5 38.5t98 13.5t97.5 -12.5t75 -35t48.5 -54t17 -70.5q0 -38 -12.5 -70t-33.5 -57t-49 -43t-59 -28l143 -153q11 34 16 84q-2 9 -9.5 15.5t-17.5 11.5t-21.5 9.5t-21.5 8.5v10h238q0 -81 -25 -139.5t-66 -98.5l87 -93h-186l-17 19
q-46 -18 -94 -26t-93 -8q-62 0 -115.5 15t-93 42t-62 65.5t-22.5 84.5q0 30 14 55t36.5 46.5t50.5 38.5t56 30q-24 12 -45.5 29.5t-38 38.5t-26.5 45.5t-10 49.5zM327 413q14 23 23 52.5t9 60.5q0 56 -15 90t-38 34q-12 0 -22 -8.5t-17 -21.5t-11 -29t-4 -31q0 -24 6 -43.5
t16 -36.5t23.5 -33.5t29.5 -33.5zM254 320q-23 -29 -31 -68.5t-8 -81.5q0 -19 6.5 -40t21.5 -39t40 -29.5t62 -11.5q25 0 54 6.5t57 26.5z" />
    <glyph glyph-name="quotesingle" unicode="'" horiz-adv-x="180" 
d="M30 715h120l-30 -253h-60z" />
    <glyph glyph-name="parenleft" unicode="(" horiz-adv-x="330" 
d="M247 -202q-56 58 -97 112t-67.5 109.5t-39.5 117.5t-13 137t14.5 137t42.5 117.5t68 109.5t92 112h73q-46 -58 -78.5 -112.5t-52.5 -111t-29.5 -118t-9.5 -134.5t8 -134.5t27.5 -118t52 -111t82.5 -112.5h-73z" />
    <glyph glyph-name="parenright" unicode=")" horiz-adv-x="330" 
d="M10 -202q50 58 82.5 112.5t52 111t27.5 118t8 134.5t-9.5 134.5t-29.5 118t-52.5 111t-78.5 112.5h73q52 -58 92.5 -112t68 -109.5t42 -117.5t14.5 -137t-13 -137t-39.5 -117.5t-67.5 -109.5t-97 -112h-73z" />
    <glyph glyph-name="asterisk" unicode="*" horiz-adv-x="350" 
d="M67 635l78 -60v98h60v-98l78 60l37 -48l-96 -74l96 -74l-37 -48l-78 60v-98h-60v98l-78 -60l-37 48l96 74l-96 74z" />
    <glyph glyph-name="plus" unicode="+" horiz-adv-x="380" 
d="M30 358h130v130h60v-130h130v-60h-130v-130h-60v130h-130v60z" />
    <glyph glyph-name="comma" unicode="," horiz-adv-x="220" 
d="M30 65q0 36 22 58t58 22t58 -22t22 -58q0 -58 -29.5 -112.5t-71.5 -92.5l-22 18q20 26 29 50t11 57q-35 2 -56 23.5t-21 56.5z" />
    <glyph glyph-name="hyphen" unicode="-" horiz-adv-x="320" 
d="M30 285h260v-60h-260v60z" />
    <glyph glyph-name="period" unicode="." horiz-adv-x="220" 
d="M30 65q0 36 22 58t58 22t58 -22t22 -58t-22 -58t-58 -22t-58 22t-22 58z" />
    <glyph glyph-name="slash" unicode="/" horiz-adv-x="548" 
d="M432 700h86l-402 -700h-86z" />
    <glyph glyph-name="zero" unicode="0" horiz-adv-x="602" 
d="M30 350q0 82 19.5 149.5t55 115.5t85.5 74t111 26t111 -26t85.5 -74t55 -115.5t19.5 -149.5t-19.5 -149.5t-55 -115.5t-85.5 -74t-111 -26t-111 26t-85.5 74t-55 115.5t-19.5 149.5zM215 351q0 -68 6.5 -123.5t17.5 -95t27 -61t35 -21.5t35 21.5t27 61t17.5 95t6.5 123.5
q0 67 -6.5 122t-17.5 94.5t-27 61t-35 21.5t-35 -21.5t-27 -61t-17.5 -94.5t-6.5 -122z" />
    <glyph glyph-name="one" unicode="1" horiz-adv-x="442" 
d="M131 615l128 85h52v-640q0 -10 15 -17t35 -13t40.5 -10.5t30.5 -9.5v-10h-422v10q11 5 31 9.5t40 10.5t35 13t15 17v473h-121v10z" />
    <glyph glyph-name="two" unicode="2" horiz-adv-x="566" 
d="M536 513q0 -55 -25 -97t-63.5 -76.5t-84 -63.5t-86 -58.5t-70 -61.5t-35.5 -72q45 12 86.5 27.5t84 30t89 24t100.5 9.5v-175h-502v65q0 60 23.5 108t58.5 89t76 76t76 67.5t58.5 65.5t23.5 69q0 29 -8 49.5t-21.5 34t-30.5 20t-36 6.5q-18 0 -38 -12.5t-37 -32.5
t-28.5 -44.5t-13.5 -47.5l-103 128q45 33 108 53.5t129 20.5q56 0 105 -12t85.5 -37t57.5 -63t21 -90z" />
    <glyph glyph-name="three" unicode="3" horiz-adv-x="576" 
d="M516 543q0 -71 -23 -111t-62 -60q50 -20 82.5 -61t32.5 -114q0 -56 -27 -96.5t-69.5 -66t-95.5 -37.5t-105 -12q-31 0 -63.5 5.5t-63.5 15t-57.5 23.5t-44.5 30l103 128q2 -23 11.5 -47.5t26.5 -44.5t42 -32.5t58 -12.5q43 0 69 34.5t26 112.5q0 43 -9.5 70.5t-27 44
t-43 23t-57.5 6.5h-45v60h43q62 0 85.5 30t23.5 99q0 32 -6.5 54.5t-17.5 37t-25 21.5t-28 7q-22 0 -40.5 -12.5t-32.5 -32.5t-22.5 -44.5t-10.5 -47.5l-103 128q42 33 100.5 53.5t121.5 20.5q53 0 99 -10.5t80.5 -31.5t54.5 -53.5t20 -76.5z" />
    <glyph glyph-name="four" unicode="4" horiz-adv-x="589" 
d="M174 242h139v212zM252 10q21 9 41 20t20 30v122h-293v60l319 458h154v-458h76v-60h-76v-122q0 -19 20 -30t41 -20v-10h-302v10z" />
    <glyph glyph-name="five" unicode="5" horiz-adv-x="603" 
d="M573 206q0 -58 -24.5 -100t-65.5 -69t-94 -39.5t-110 -12.5q-34 0 -69.5 5.5t-69 15t-62 23.5t-48.5 30l103 128q2 -23 9 -47.5t22.5 -44.5t41 -32.5t65.5 -12.5q51 0 81.5 37t30.5 119q0 46 -11.5 76t-30 47t-41.5 24t-45 7h-179l44 340h412v-175q-47 0 -83 7.5t-66 19
t-56.5 25t-54.5 25.5l-23 -182h16q44 0 97.5 -6t100.5 -28t78.5 -64.5t31.5 -115.5z" />
    <glyph glyph-name="six" unicode="6" horiz-adv-x="602" 
d="M328 650q-48 0 -78 -69t-34 -194q18 15 43 23.5t58 8.5q53 0 99 -12.5t81 -38.5t55 -66t20 -96q0 -61 -19.5 -103t-55 -68t-85.5 -38t-111 -12t-111 26t-85.5 74t-55 115.5t-19.5 149.5q0 84 20 152t57 115t89 72.5t116 25.5q71 0 125.5 -20.5t96.5 -53.5l-103 -128
q-1 23 -10 47.5t-22.5 44.5t-31.5 32.5t-39 12.5zM215 311q2 -59 7.5 -107.5t16.5 -82.5t29 -52.5t43 -18.5q34 0 55 38.5t21 103.5q0 77 -22 119.5t-64 42.5q-26 0 -47.5 -11.5t-38.5 -31.5z" />
    <glyph glyph-name="seven" unicode="7" horiz-adv-x="542" 
d="M106 0q0 114 23.5 200t63.5 157.5t93.5 134t113.5 130.5q-48 -10 -90 -26.5t-84.5 -32.5t-90 -27t-105.5 -11v175h482v-65q-63 -70 -105.5 -134.5t-69 -137t-37.5 -160t-11 -203.5h-183z" />
    <glyph glyph-name="eight" unicode="8" horiz-adv-x="612" 
d="M50 525q0 43 18.5 78t52 60t80.5 38.5t105 13.5t105 -13.5t80.5 -38.5t52 -60t18.5 -78q0 -51 -26 -91t-74 -65q57 -26 88.5 -71.5t31.5 -105.5q0 -46 -20 -84.5t-56 -65.5t-87 -42t-113 -15t-113 15t-87 42t-56 65.5t-20 84.5q0 60 31.5 105.5t88.5 71.5q-48 25 -74 65
t-26 91zM235 526q0 -57 19.5 -91.5t51.5 -34.5t51.5 34.5t19.5 91.5q0 56 -19.5 90t-51.5 34t-51.5 -34t-19.5 -90zM215 193q0 -65 25 -104t66 -39t66 39t25 104q0 64 -25 103t-66 39t-66 -39t-25 -103z" />
    <glyph glyph-name="nine" unicode="9" horiz-adv-x="602" 
d="M274 50q48 0 78 69t34 194q-18 -15 -43 -23.5t-58 -8.5q-52 0 -98.5 12.5t-81.5 38.5t-55 66.5t-20 95.5q0 61 19.5 103t55 68.5t85.5 38t111 11.5t111 -26t85.5 -74t55 -115.5t19.5 -149.5q0 -84 -20 -152t-57 -115t-89 -72.5t-116 -25.5q-71 0 -125.5 20.5t-96.5 53.5
l103 128q2 -23 10.5 -47.5t22 -44.5t31.5 -32.5t39 -12.5zM387 389q-1 59 -7 107.5t-17 82.5t-28.5 52.5t-43.5 18.5q-34 0 -55 -38.5t-21 -103.5q0 -77 22 -119.5t64 -42.5q26 0 47.5 11.5t38.5 31.5z" />
    <glyph glyph-name="colon" unicode=":" horiz-adv-x="220" 
d="M30 410q0 36 22 58t58 22t58 -22t22 -58t-22 -58t-58 -22t-58 22t-22 58zM30 65q0 36 22 58t58 22t58 -22t22 -58t-22 -58t-58 -22t-58 22t-22 58z" />
    <glyph glyph-name="semicolon" unicode=";" horiz-adv-x="220" 
d="M30 410q0 36 22 58t58 22t58 -22t22 -58t-22 -58t-58 -22t-58 22t-22 58zM30 65q0 36 22 58t58 22t58 -22t22 -58q0 -58 -29.5 -112.5t-71.5 -92.5l-22 18q20 26 29 50t11 57q-35 2 -56 23.5t-21 56.5z" />
    <glyph glyph-name="less" unicode="&#x3c;" horiz-adv-x="400" 
d="M370 498v-60l-272 -118l272 -117v-60l-340 147v61z" />
    <glyph glyph-name="equal" unicode="=" horiz-adv-x="370" 
d="M30 395h310v-60h-310v60zM30 265h310v-60h-310v60z" />
    <glyph glyph-name="greater" unicode="&#x3e;" horiz-adv-x="400" 
d="M30 143v60l272 118l-272 117v60l340 -147v-61z" />
    <glyph glyph-name="question" unicode="?" horiz-adv-x="525" 
d="M495 560q0 -56 -15.5 -89t-39.5 -52.5t-51 -32t-51 -28.5t-39.5 -40t-15.5 -68h-100q0 36 9 61t22.5 45t29.5 38t29.5 38t22.5 46t9 62q0 58 -23.5 84t-54.5 26q-15 0 -31 -12.5t-29.5 -32.5t-22.5 -44.5t-11 -47.5l-103 128q42 33 99.5 53.5t118.5 20.5q51 0 96 -11.5
t78.5 -32t53 -49t19.5 -62.5zM149 65q0 36 22 58t58 22t58 -22t22 -58t-22 -58t-58 -22t-58 22t-22 58z" />
    <glyph glyph-name="at" unicode="@" horiz-adv-x="997" 
d="M726 -66q-45 -17 -79.5 -27t-66.5 -15.5t-67 -7.5t-82 -2q-30 0 -71.5 9t-86 28t-88 49t-78 72.5t-56 98.5t-21.5 127q0 101 31.5 182.5t91.5 139.5t147.5 89t200.5 31q115 0 192.5 -31t125 -83t68 -120.5t20.5 -143.5q0 -76 -17.5 -126t-47 -80t-67.5 -42t-79 -12
q-42 0 -67.5 14.5t-39.5 39.5q-24 -18 -56 -28.5t-71 -10.5q-55 0 -94.5 14.5t-65 40t-37.5 61t-12 78.5q0 38 12 78.5t37 73.5t63.5 54.5t91.5 21.5q54 0 109 -18.5t98 -50.5l-10 -198q-1 -23 -0.5 -42.5t5 -33.5t15 -21.5t28.5 -7.5q6 0 19.5 3.5t27 20.5t23.5 52t10 99
t-16 124t-50.5 106.5t-88.5 74.5t-130 28q-79 0 -142 -28t-107.5 -78.5t-68.5 -119.5t-24 -151q0 -51 16 -95t42.5 -79.5t59 -62.5t66 -45t64.5 -27.5t53 -9.5q38 0 65.5 1.5t53 6.5t53 14.5t65.5 24.5zM539 374q1 14 -5.5 26t-17 21.5t-23.5 15t-27 5.5q-37 0 -62.5 -45.5
t-25.5 -122.5q0 -65 20.5 -94.5t52.5 -29.5q26 0 41.5 11t24.5 27.5t12.5 35.5t4.5 36z" />
    <glyph glyph-name="A" unicode="A" horiz-adv-x="700" 
d="M-30 10q10 5 24.5 9.5t28.5 10.5t25 13t14 17l198 583q1 9 -5.5 15.5t-17 12t-23 10.5l-22.5 9v10h267l226 -828q10 -16 31 -25t40 -17v-10h-322v10q11 4 23.5 9t23.5 11t17 13.5t3 16.5h2l-95 348h-225l-58 -171q2 -9 11 -16t21 -12t25.5 -9.5t23.5 -9.5v-10h-236v10z
M204 288h187l-83 307z" />
    <glyph glyph-name="B" unicode="B" horiz-adv-x="657" 
d="M10 700h299q147 0 217.5 -50t70.5 -133q0 -48 -27 -85.5t-78 -61.5q69 -24 102 -68.5t33 -104.5q0 -44 -21 -80.5t-61.5 -62.5t-99 -40t-132.5 -14h-303v10q11 5 23 9.5t23 10.5t18 13t7 17v580q0 10 -7 17t-18 13t-23 11t-23 9v10zM261 395h31q60 0 90 33t30 88
t-29.5 89.5t-101.5 34.5h-20v-245zM261 60h45q69 0 102.5 37t33.5 99q0 31 -8 56.5t-25.5 44t-46 28.5t-69.5 10h-32v-275z" />
    <glyph glyph-name="C" unicode="C" horiz-adv-x="611" 
d="M367 -14q-73 0 -135 24.5t-107 71t-70 114t-25 154.5q0 82 23 149.5t66.5 115.5t105.5 74t140 26q57 0 102.5 -20.5t92.5 -53.5l20 -191h-10q-4 11 -12.5 31.5t-18 43t-20.5 44t-21 33.5q-28 20 -59.5 34t-75.5 14q-35 0 -62.5 -21.5t-46.5 -61t-29 -94.5t-10 -122
q0 -70 13.5 -126t37 -94t54.5 -58.5t66 -20.5t65 13t58 33q10 12 21 33.5t20.5 44t18 43.5t12.5 31h10l-20 -191q-23 -16 -45 -29.5t-46 -23.5t-51.5 -15t-61.5 -5z" />
    <glyph glyph-name="D" unicode="D" horiz-adv-x="677" 
d="M10 700h314q82 0 143 -25t101 -71t59.5 -111t19.5 -144t-22 -143t-64 -110t-103 -71t-139 -25h-309v10q11 5 23 9.5t23 10.5t18 13t7 17v580q0 10 -7 17t-18 13t-23 11t-23 9v10zM261 60h54q37 0 64.5 20.5t46 58t27.5 90.5t9 118t-8.5 119t-27.5 92.5t-50 60t-75 21.5
h-40v-580z" />
    <glyph glyph-name="E" unicode="E" horiz-adv-x="585" 
d="M450 475l40 -244h-10q-4 11 -12 26.5t-17.5 30t-20 25t-20.5 10.5h-149v-263h224q10 0 20.5 16.5t20 38.5t17.5 44t12 32h10l-20 -191h-535v10q11 5 23 9.5t23 10.5t18 13t7 17v580q0 10 -7 17t-18 13t-23 11t-23 9v10h515l20 -191h-10q-4 11 -12 32.5t-17.5 43.5
t-20 38.5t-20.5 16.5h-204v-257h149q10 0 15.5 8t8.5 21.5t4 30t2 32.5h10z" />
    <glyph glyph-name="F" unicode="F" horiz-adv-x="555" 
d="M10 10q11 5 23 9.5t23 10.5t18 13t7 17v580q0 10 -7 17t-18 13t-23 11t-23 9v10h505l20 -191h-10q-4 11 -12 32.5t-17.5 43.5t-20 38.5t-20.5 16.5h-194v-257h139q10 0 15.5 8t8.5 21.5t4 30t2 32.5h10l40 -244h-10q-4 11 -12 26.5t-17.5 30t-20 25t-20.5 10.5h-139v-263
q0 -10 7 -17t18 -13t23.5 -10.5t22.5 -9.5v-10h-322v10z" />
    <glyph glyph-name="G" unicode="G" horiz-adv-x="639" 
d="M320 -14q-58 0 -110.5 24.5t-92.5 71t-63.5 114t-23.5 154.5q0 82 23 149.5t66.5 115.5t105.5 74t140 26q57 0 102.5 -20.5t92.5 -53.5l20 -191h-10q-4 11 -12.5 31.5t-18 43t-20.5 44t-21 33.5q-28 20 -59.5 34t-75.5 14q-35 0 -62.5 -21.5t-46.5 -61t-29 -94.5
t-10 -122q0 -70 12 -126t30.5 -94t41 -58.5t44.5 -20.5q29 0 46 8.5t26 23.5t11.5 34t2.5 40v138q0 10 -7 17t-18 13t-23 11t-23 9v10h251v-356l-148 73q-20 -34 -54.5 -60.5t-86.5 -26.5z" />
    <glyph glyph-name="H" unicode="H" horiz-adv-x="718" 
d="M10 700h322v-10l-22.5 -9t-23.5 -11t-18 -13t-7 -17v-236h196v236q0 10 -7 17t-18 13t-23 11t-23 9v10h322v-10l-22.5 -9t-23.5 -11t-18 -13t-7 -17v-760q0 -10 7 -17t18 -13t23.5 -11l22.5 -9v-10h-322v10q11 4 23 9t23 11t18 13t7 17v464h-196v-284q0 -10 7 -17t18 -13
t23.5 -10.5t22.5 -9.5v-10h-322v10q11 5 23 9.5t23 10.5t18 13t7 17v580q0 10 -7 17t-18 13t-23 11t-23 9v10z" />
    <glyph glyph-name="I" unicode="I" horiz-adv-x="342" 
d="M10 700h322v-10l-22.5 -9t-23.5 -11t-18 -13t-7 -17v-580q0 -10 7 -17t18 -13t23.5 -10.5t22.5 -9.5v-10h-322v10q11 5 23 9.5t23 10.5t18 13t7 17v580q0 10 -7 17t-18 13t-23 11t-23 9v10z" />
    <glyph glyph-name="J" unicode="J" horiz-adv-x="536" 
d="M204 700h322v-10l-22.5 -9t-23.5 -11t-18 -13t-7 -17v-397q0 -69 -17.5 -118t-48.5 -80t-71.5 -45t-87.5 -14q-34 0 -59 5t-46.5 15t-41.5 23.5t-43 29.5l-20 191h10q5 -10 12 -31t16.5 -44t20 -44t20.5 -32q27 -20 49 -33.5t50 -13.5q17 0 31 11.5t24 39t16 74.5t6 117
v346q0 10 -7 17t-18 13t-23 11t-23 9v10z" />
    <glyph glyph-name="K" unicode="K" horiz-adv-x="729" 
d="M10 700h322v-10l-22.5 -9t-23.5 -11t-18 -13t-7 -17v-248l217 250q6 8 -3.5 15t-25 13t-33.5 11t-30 9v10h322v-10q-12 -3 -32.5 -7.5t-42 -10t-41 -12.5t-29.5 -16l-127 -145l270 -619q5 -10 17.5 -17.5t27.5 -13t30.5 -10.5t25.5 -9v-10h-371v10q11 4 24.5 10.5
t25.5 13.5t19 13.5t4 12.5h1l-205 469l-44 -51v-238q0 -10 7 -17t18 -13t23.5 -10.5t22.5 -9.5v-10h-322v10q11 5 23 9.5t23 10.5t18 13t7 17v580q0 10 -7 17t-18 13t-23 11t-23 9v10z" />
    <glyph glyph-name="L" unicode="L" horiz-adv-x="585" 
d="M10 700h322v-10l-22.5 -9t-23.5 -11t-18 -13t-7 -17v-580h194q10 0 25 16.5t30 38.5t28 44t17 32h10l-50 -251l-505 60v10q11 5 23 9.5t23 10.5t18 13t7 17v580q0 10 -7 17t-18 13t-23 11t-23 9v10z" />
    <glyph glyph-name="M" unicode="M" horiz-adv-x="977" 
d="M91 700l-81 70l280 -70l238 -525l188 525h251v-10l-22.5 -9t-23.5 -11t-18 -13t-7 -17v-760q0 -10 7 -17t18 -13t23.5 -11l22.5 -9v-10h-322v10q11 4 23 9t23 11t18 13t7 17v642l-187 -522h-121l-257 568v-508q0 -10 7 -17t18 -13t23.5 -10.5t22.5 -9.5v-10h-202v10
q11 5 23 9.5t23 10.5t18 13t7 17v640z" />
    <glyph glyph-name="N" unicode="N" horiz-adv-x="688" 
d="M91 700l-81 70l280 -70l257 -568v508q0 10 -7 17t-18 13t-23 11t-23 9v10h202v-10l-22.5 -9t-23.5 -11t-18 -13t-7 -17v-640l53 -142l-252 142l-257 568v-508q0 -10 7 -17t18 -13t23.5 -10.5t22.5 -9.5v-10h-202v10q11 5 23 9.5t23 10.5t18 13t7 17v640z" />
    <glyph glyph-name="O" unicode="O" horiz-adv-x="697" 
d="M30 350q0 82 23 149.5t64.5 115.5t100.5 74t131 26t130.5 -26t100 -74t64.5 -115.5t23 -149.5t-23 -149.5t-64.5 -115.5t-100 -74t-130.5 -26t-131 26t-100.5 74t-64.5 115.5t-23 149.5zM215 351q0 -68 9.5 -123.5t27.5 -95t42.5 -61t54.5 -21.5t54.5 21.5t42 61t27 95
t9.5 123.5q0 67 -9.5 122t-27 94.5t-42 61t-54.5 21.5t-54.5 -21.5t-42.5 -61t-27.5 -94.5t-9.5 -122z" />
    <glyph glyph-name="P" unicode="P" horiz-adv-x="647" 
d="M10 700h305q77 0 133.5 -15.5t94 -43t56 -67t18.5 -87.5t-20.5 -87t-60 -66.5t-96.5 -43t-130 -15.5h-49v-215q0 -10 7 -17t18 -13t23.5 -10.5t22.5 -9.5v-10h-322v10q11 5 23 9.5t23 10.5t18 13t7 17v580q0 10 -7 17t-18 13t-23 11t-23 9v10zM261 335h40q66 0 98.5 41
t32.5 110q0 34 -7.5 62.5t-24.5 48.5t-44.5 31.5t-66.5 11.5h-28v-305z" />
    <glyph glyph-name="Q" unicode="Q" horiz-adv-x="697" 
d="M30 350q0 82 23 149.5t64.5 115.5t100.5 74t131 26t130.5 -26t100 -74t64.5 -115.5t23 -149.5q0 -74 -18.5 -136t-53 -108.5t-82.5 -76.5t-108 -40q11 -35 40 -54.5t67 -19.5q18 0 34 5.5t32 15t32 21.5t34 24l52 -90q-21 -22 -45 -36.5t-47.5 -23.5t-45.5 -12.5
t-38 -3.5q-36 0 -63 13t-46.5 35.5t-31.5 54t-16 67.5h-14q-72 0 -131 26t-100.5 74t-64.5 115.5t-23 149.5zM215 351q0 -68 9.5 -123.5t27.5 -95t42.5 -61t54.5 -21.5t54.5 21.5t42 61t27 95t9.5 123.5q0 67 -9.5 122t-27 94.5t-42 61t-54.5 21.5t-54.5 -21.5t-42.5 -61
t-27.5 -94.5t-9.5 -122z" />
    <glyph glyph-name="R" unicode="R" horiz-adv-x="657" 
d="M10 700h589l18 -138l-159 -118l248 -564q5 -10 17.5 -17.5t27.5 -13t30.5 -10.5t25.5 -9v-10h-371v10q11 4 24.5 10.5t25.5 13.5t19 13.5t4 12.5h1l-200 455h-49v-275q0 -10 7 -17t18 -13t23.5 -10.5t22.5 -9.5v-10h-322v10q11 5 23 9.5t23 10.5t18 13t7 17v580
q0 10 -7 17t-18 13t-23 11t-23 9v10zM261 395h40l123 131l-24 114h-139v-245z" />
    <glyph glyph-name="S" unicode="S" horiz-adv-x="605" 
d="M38 513q0 52 22 90t60 63t89 37t109 12q68 0 116.5 -20.5t94.5 -53.5l20 -191h-10q-4 11 -12.5 31.5t-18 43t-20.5 44t-21 33.5q-29 20 -66.5 34t-91.5 14q-55 0 -89.5 -23t-34.5 -65q0 -24 11.5 -42.5t31.5 -32t48.5 -23.5t62.5 -18q77 -18 123.5 -45t71.5 -58.5
t33 -65.5t8 -66q0 -61 -22 -104t-62 -70t-96.5 -39.5t-125.5 -12.5q-37 0 -66 5.5t-54 15t-47 23.5t-46 30l-20 191h10q5 -10 13 -31t17.5 -43.5t20.5 -44t21 -33.5q29 -20 64 -34t85 -14q28 0 55.5 7.5t49 22t35 34.5t13.5 44t-10.5 40.5t-29 28t-43.5 20t-53 17.5
q-66 21 -113 48.5t-76.5 59.5t-43 68t-13.5 73z" />
    <glyph glyph-name="T" unicode="T" horiz-adv-x="640" 
d="M610 509q-4 11 -12 32.5t-17.5 43.5t-20 38.5t-20.5 16.5h-130v-630q0 -10 7 -17t18 -13t23.5 -11l22.5 -9v-10l-322 -65v10q11 4 23 11.5t23 16t18 18t7 19.5v680h-129q-10 0 -20.5 -16.5t-20 -38.5t-17.5 -43.5t-13 -32.5h-10l20 191h560l20 -191h-10z" />
    <glyph glyph-name="U" unicode="U" horiz-adv-x="722" 
d="M641 288q0 -82 -20 -139.5t-57 -94t-88.5 -53t-114.5 -16.5t-114.5 16.5t-88.5 53t-57 94t-20 139.5v352q0 10 -7 17t-18 13t-23 11t-23 9v10h322v-10l-22.5 -9t-23.5 -11t-18 -13t-7 -17v-351q0 -68 12 -114t33 -73.5t50.5 -39.5t64.5 -12q34 0 63.5 12t51 39.5
t33.5 73.5t12 114v351q0 10 -7 17t-17.5 13t-22.5 11t-23 9v10h201v-10l-22.5 -9t-23.5 -11t-18 -13t-7 -17v-352z" />
    <glyph glyph-name="V" unicode="V" horiz-adv-x="676" 
d="M447 1h-180l-221 644q-9 17 -32.5 27t-43.5 18v10h322v-10l-22.5 -9t-22.5 -11t-16 -13.5t-3 -16.5l182 -532l185 733q0 10 -9.5 17t-22.5 13t-27.5 11t-25.5 9v10h236v-10q-9 -4 -22 -8.5t-25.5 -10t-23 -12t-15.5 -15.5z" />
    <glyph glyph-name="W" unicode="W" horiz-adv-x="1078" 
d="M447 1h-180l-221 644q-9 17 -32.5 27t-43.5 18v10h322v-10l-22.5 -9t-22.5 -11t-16 -13.5t-3 -16.5l182 -531l89 354l-62 182q-9 17 -32.5 27t-43.5 18v10h322v-10l-22.5 -9t-22.5 -11t-16 -13.5t-3 -16.5l182 -532l185 733q0 10 -9.5 17t-22.5 13t-27.5 11t-25.5 9v10
h236v-10q-9 -4 -22 -8.5t-25.5 -10t-23 -12t-15.5 -15.5l-213 -844h-180l-122 355z" />
    <glyph glyph-name="X" unicode="X" horiz-adv-x="885" 
d="M553 700h322v-10q-13 -4 -35 -8.5t-45 -10.5t-42.5 -14t-27.5 -17h-1l-237 -263l273 -497h2q5 -10 17.5 -17.5t27.5 -13t30.5 -10.5t25.5 -9v-10h-381v10q10 4 22.5 9.5t24 12t19.5 12.5t8 12l-184 335l-132 -152q-6 -9 3 -16t25 -13t34 -11t30 -9v-10h-322v10
q12 3 32 7.5t42 10t41.5 12.5t29.5 15l185 213l-204 372h-2q-5 10 -18.5 17.5t-29.5 13t-31.5 10.5t-26.5 9v10h381v-10q-10 -4 -22 -9.5t-22.5 -12t-17.5 -12.5t-7 -12l116 -210l191 212q2 8 -8.5 14t-25.5 11.5t-32 10t-28 8.5v10z" />
    <glyph glyph-name="Y" unicode="Y" horiz-adv-x="783" 
d="M495 700h318v-10q-12 -4 -32 -8.5t-41 -10t-40 -12.5t-29 -15l-190 -236v-348q0 -10 7 -17t18 -13t23.5 -10.5t22.5 -9.5v-10h-322v10q11 5 23 9.5t23 10.5t18 13t7 17v288l-239 298q-17 15 -44.5 25.5t-47.5 18.5v10h401v-10q-10 -4 -24 -10.5t-25.5 -13.5t-18.5 -13.5
t-4 -12.5l145 -181l148 184q4 8 -6 14.5t-26.5 12.5t-34.5 11t-30 9v10z" />
    <glyph glyph-name="Z" unicode="Z" horiz-adv-x="580" 
d="M30 509l20 191h500v-60l-311 -580h231q10 0 20.5 16.5t20 38.5t17.5 44t12 32h10l-20 -191h-500v60l311 580h-231q-10 0 -20.5 -16.5t-20 -38.5t-17 -43.5t-12.5 -32.5h-10z" />
    <glyph glyph-name="bracketleft" unicode="[" horiz-adv-x="265" 
d="M30 700h225v-60h-105v-798h105v-60h-225v918z" />
    <glyph glyph-name="backslash" unicode="\" horiz-adv-x="548" 
d="M432 0l-402 700h86l402 -700h-86z" />
    <glyph glyph-name="bracketright" unicode="]" horiz-adv-x="265" 
d="M10 640v60h225v-918h-225v60h105v798h-105z" />
    <glyph glyph-name="asciicircum" unicode="^" horiz-adv-x="415" 
d="M385 360h-60l-117 272l-118 -272h-60l147 340h61z" />
    <glyph glyph-name="underscore" unicode="_" horiz-adv-x="380" 
d="M-10 -101h400v-60h-400v60z" />
    <glyph glyph-name="grave" unicode="`" horiz-adv-x="212" 
d="M30 655l56 57l96 -124l-28 -28z" />
    <glyph glyph-name="a" unicode="a" horiz-adv-x="568" 
d="M-20 8q8 4 19.5 7.5t22.5 8t20 10.5t12 14l158 466q1 7 -4.5 12.5t-13.5 10t-18 8t-18 7.5v8h213l156 -512h1q5 -16 24 -24t36 -16v-8h-258v8q8 3 17.5 7t18 8t14 9.5t5.5 11.5l-43 138h-192l-46 -137q2 -7 9 -12.5t17 -9.5t20.5 -7.5t18.5 -7.5v-8h-189v8zM167 230h161
l-77 251z" />
    <glyph glyph-name="b" unicode="b" horiz-adv-x="534" 
d="M10 560h239q118 0 174.5 -40t56.5 -106q0 -39 -21.5 -69t-62.5 -49q55 -20 81.5 -55t26.5 -83q0 -72 -66 -115t-186 -43h-242v8q8 4 18 7.5t18.5 8t14.5 10.5t6 14v464q0 8 -6 14t-14.5 10.5t-18.5 8t-18 7.5v8zM211 316h25q48 0 72 26t24 71q0 44 -23.5 71.5t-81.5 27.5
h-16v-196zM211 48h36q55 0 82 29.5t27 79.5q0 49 -27 80t-93 31h-25v-220z" />
    <glyph glyph-name="c" unicode="c" horiz-adv-x="509" 
d="M300 -11q-58 0 -107.5 19.5t-85.5 56.5t-56.5 91.5t-20.5 123.5q0 66 18.5 119.5t53 92t84.5 59.5t112 21q45 0 81.5 -16.5t74.5 -42.5l16 -153h-8q-4 8 -10.5 24.5t-14 34.5t-16.5 35.5t-17 27.5q-22 16 -47.5 27t-60.5 11q-28 0 -50 -17t-37 -48.5t-23 -75.5t-8 -98
q0 -57 11 -101t29.5 -75t43.5 -47t53 -16t52 10t46 27q8 10 17 27t16.5 35t14 34.5t10.5 24.5h8l-16 -153q-37 -26 -73 -42t-90 -16z" />
    <glyph glyph-name="d" unicode="d" horiz-adv-x="550" 
d="M10 560h251q66 0 114.5 -20t80.5 -57t48 -89t16 -115t-17.5 -114.5t-51.5 -88t-83 -56.5t-111 -20h-247v8q8 4 18 7.5t18.5 8t14.5 10.5t6 14v464q0 8 -6 14t-14.5 10.5t-18.5 8t-18 7.5v8zM211 48h43q29 0 51 16.5t37 46.5t22.5 72.5t7.5 94.5t-7 95t-22.5 74t-40 48
t-59.5 17h-32v-464z" />
    <glyph glyph-name="e" unicode="e" horiz-adv-x="474" 
d="M362 380l32 -195h-8q-4 9 -10 21.5t-13.5 24t-16 19.5t-16.5 8h-119v-210h179q8 0 16.5 13t16 30.5t13.5 35t10 26.5h8l-16 -153h-428v8q8 4 18 7.5t18.5 8t14.5 10.5t6 14v464q0 8 -6 14t-14.5 10.5t-18.5 8t-18 7.5v8h412l16 -153h-8q-4 9 -10 26.5t-13.5 35t-16 30.5
t-16.5 13h-163v-206h119q8 0 12.5 6.5t6.5 17t3 24t2 26.5h8z" />
    <glyph glyph-name="f" unicode="f" horiz-adv-x="450" 
d="M10 8q8 4 18 7.5t18.5 8t14.5 10.5t6 14v464q0 8 -6 14t-14.5 10.5t-18.5 8t-18 7.5v8h404l16 -153h-8q-4 9 -10 26.5t-13.5 35t-16 30.5t-16.5 13h-155v-206h111q8 0 12.5 6.5t6.5 17t3 24t2 26.5h8l32 -195h-8q-4 9 -10 21.5t-13.5 24t-16 19.5t-16.5 8h-111v-210
q0 -8 5.5 -14t14 -10.5t18.5 -8t19 -7.5v-8h-258v8z" />
    <glyph glyph-name="g" unicode="g" horiz-adv-x="514" 
d="M262 -11q-46 0 -88 19.5t-74 56.5t-51 91.5t-19 123.5q0 66 18.5 119.5t53 92t84.5 59.5t112 21q45 0 81.5 -16.5t74.5 -42.5l16 -153h-8q-4 8 -10.5 24.5t-14 34.5t-16.5 35.5t-17 27.5q-22 16 -47.5 27t-60.5 11q-28 0 -50 -17t-37 -48.5t-23 -75.5t-8 -98
q0 -57 9.5 -101t24.5 -75t33 -47t35 -16q23 0 36.5 7t21 18.5t9.5 27t2 31.5v111q0 8 -5.5 14t-14 10.5t-18.5 8t-19 7.5v8h201v-285l-119 58q-16 -26 -43 -47.5t-69 -21.5z" />
    <glyph glyph-name="h" unicode="h" horiz-adv-x="578" 
d="M10 560h258v-8q-9 -4 -19 -7.5t-18.5 -8t-14 -10.5t-5.5 -14v-189h157v189q0 8 -6 14t-14.5 10.5t-18.5 8t-18 7.5v8h257v-8q-8 -4 -18 -7.5t-18.5 -8t-14 -10.5t-5.5 -14v-464q0 -8 5.5 -14t14 -10.5t18.5 -8t18 -7.5v-8h-257v8q8 4 18 7.5t18.5 8t14.5 10.5t6 14v227
h-157v-227q0 -8 5.5 -14t14 -10.5t18.5 -8t19 -7.5v-8h-258v8q8 4 18 7.5t18.5 8t14.5 10.5t6 14v464q0 8 -6 14t-14.5 10.5t-18.5 8t-18 7.5v8z" />
    <glyph glyph-name="i" unicode="i" horiz-adv-x="278" 
d="M10 560h258v-8q-9 -4 -19 -7.5t-18.5 -8t-14 -10.5t-5.5 -14v-464q0 -8 5.5 -14t14 -10.5t18.5 -8t19 -7.5v-8h-258v8q8 4 18 7.5t18.5 8t14.5 10.5t6 14v464q0 8 -6 14t-14.5 10.5t-18.5 8t-18 7.5v8z" />
    <glyph glyph-name="j" unicode="j" horiz-adv-x="435" 
d="M167 560h258v-8q-9 -4 -19 -7.5t-18.5 -8t-14 -10.5t-5.5 -14v-318q0 -55 -14 -94t-38.5 -64t-57.5 -36t-70 -11q-27 0 -47 4t-37 11.5t-33 18.5t-35 24l-16 153h8q4 -8 10 -25.5t13.5 -36.5t16.5 -35.5t18 -24.5q20 -16 37 -26t39 -10q14 0 25 9t19.5 31t13 59.5
t4.5 93.5v277q0 8 -5.5 14t-14 10.5t-18.5 8t-19 7.5v8z" />
    <glyph glyph-name="k" unicode="k" horiz-adv-x="599" 
d="M10 560h258v-8q-9 -4 -19 -7.5t-18.5 -8t-14 -10.5t-5.5 -14v-201l195 208q-1 5 -9.5 10t-20 9t-24 7.5t-21.5 6.5v8h257v-8q-10 -3 -27.5 -7t-36 -8.5t-34.5 -10.5t-22 -14h-2l-111 -120l161 -344h2q4 -8 14 -14t22 -10.5t24 -8t21 -7.5v-8h-297v8q8 3 17.5 7.5
t18.5 9.5t15.5 10t7.5 9l-112 233l-38 -40v-189q0 -8 5.5 -14t14 -10.5t18.5 -8t19 -7.5v-8h-258v8q8 4 18 7.5t18.5 8t14.5 10.5t6 14v464q0 8 -6 14t-14.5 10.5t-18.5 8t-18 7.5v8z" />
    <glyph glyph-name="l" unicode="l" horiz-adv-x="474" 
d="M10 560h258v-8q-9 -4 -19 -7.5t-18.5 -8t-14 -10.5t-5.5 -14v-464h155q8 0 20 13t24 30.5t22 35t14 26.5h8l-40 -153h-404v8q8 4 18 7.5t18.5 8t14.5 10.5t6 14v464q0 8 -6 14t-14.5 10.5t-18.5 8t-18 7.5v8z" />
    <glyph glyph-name="m" unicode="m" horiz-adv-x="778" 
d="M10 8q8 4 18 7.5t18.5 8t14.5 10.5t6 14v464q0 8 -5.5 14t-14 10.5t-18.5 8t-19 7.5v8h216l190 -420l151 420h201v-8q-9 -4 -19 -7.5t-18.5 -8t-14 -10.5t-5.5 -14v-464q0 -8 5.5 -14t14 -10.5t18.5 -8t19 -7.5v-8h-258v8q8 4 18 7.5t18.5 8t14.5 10.5t6 14v370
l-150 -418h-97l-205 454v-406q0 -8 5.5 -14t14 -10.5t18.5 -8t19 -7.5v-8h-162v8z" />
    <glyph glyph-name="n" unicode="n" horiz-adv-x="546" 
d="M10 8q8 4 18 7.5t18.5 8t14.5 10.5t6 14v464q0 8 -6 14t-14.5 10.5t-18.5 8t-18 7.5v8h216l206 -454v406q0 8 -6 14t-14.5 10.5t-18.5 8t-18 7.5v8h161v-8q-8 -4 -18 -7.5t-18.5 -8t-14 -10.5t-5.5 -14v-512h-160l-205 454v-406q0 -8 5.5 -14t14 -10.5t18.5 -8t19 -7.5
v-8h-162v8z" />
    <glyph glyph-name="o" unicode="o" horiz-adv-x="570" 
d="M30 280q0 66 18.5 119.5t52 92t80.5 59.5t104 21t104 -21t80.5 -59.5t52 -92t18.5 -119.5t-18.5 -119.5t-52 -92t-80.5 -59.5t-104 -21t-104 21t-80.5 59.5t-52 92t-18.5 119.5zM178 281q0 -54 7.5 -98.5t22 -76t34 -49t43.5 -17.5t43.5 17.5t33.5 49t22 76t8 98.5t-8 98
t-22 75.5t-33.5 48.5t-43.5 17t-43.5 -17t-34 -48.5t-22 -75.5t-7.5 -98z" />
    <glyph glyph-name="p" unicode="p" horiz-adv-x="526" 
d="M10 560h244q123 0 182.5 -46.5t59.5 -123.5t-64.5 -123.5t-181.5 -46.5h-39v-172q0 -8 5.5 -14t14 -10.5t18.5 -8t19 -7.5v-8h-258v8q8 4 18 7.5t18.5 8t14.5 10.5t6 14v464q0 8 -6 14t-14.5 10.5t-18.5 8t-18 7.5v8zM211 268h32q52 0 78.5 33t26.5 88t-26 89t-89 34h-22
v-244z" />
    <glyph glyph-name="q" unicode="q" horiz-adv-x="570" 
d="M24 280q0 66 18.5 119.5t52 92t80.5 59.5t104 21t104 -21t80.5 -59.5t52 -92t18.5 -119.5q0 -59 -15 -108.5t-42 -87t-66 -61.5t-87 -31q9 -29 32 -44.5t54 -15.5q29 0 52.5 16.5t52.5 36.5l42 -72q-16 -18 -35.5 -29.5t-38.5 -18.5t-36.5 -10t-30.5 -3q-57 0 -88 38.5
t-38 97.5h-11q-57 0 -104 21t-80.5 59.5t-52 92t-18.5 119.5zM172 281q0 -54 7.5 -98.5t22 -76t34 -49t43.5 -17.5t43.5 17.5t33.5 49t22 76t8 98.5t-8 98t-22 75.5t-33.5 48.5t-43.5 17t-43.5 -17t-34 -48.5t-22 -75.5t-7.5 -98z" />
    <glyph glyph-name="r" unicode="r" horiz-adv-x="617" 
d="M310 8q9 4 20 9t20.5 10.5t15.5 11t3 9.5l-90 173q-7 -1 -14 -1h-15h-40v-172q0 -8 6 -14t14.5 -10.5t18.5 -8t18 -7.5v-8h-257v8q8 4 18 7.5t18.5 8t14 10.5t5.5 14v464q0 8 -5.5 14t-14 10.5t-18.5 8t-18 7.5v8h244q123 0 182 -46.5t59 -123.5q0 -86 -78 -132l109 -210
q5 -8 15 -14t22 -10.5t24 -8t20 -7.5v-8h-297v8zM210 268h32q53 0 79 33t26 88t-25.5 89t-88.5 34h-23v-244z" />
    <glyph glyph-name="s" unicode="s" horiz-adv-x="491" 
d="M31 410q0 42 17.5 72.5t48 50.5t71.5 29.5t87 9.5q55 0 93.5 -16.5t75.5 -42.5l16 -153h-8q-3 8 -9.5 23.5t-14 33.5t-15.5 35.5t-16 27.5q-23 17 -53.5 28.5t-75.5 11.5q-44 0 -71.5 -18.5t-27.5 -51.5q0 -39 34 -59.5t89 -33.5q62 -14 99 -36t57 -47.5t26.5 -52.5
t6.5 -52q0 -49 -17.5 -83.5t-50 -56t-77.5 -31.5t-100 -10q-30 0 -53 4.5t-43 12t-37.5 18.5t-36.5 24l-16 153h8q3 -8 9.5 -23.5t14 -33.5t16 -35t15.5 -28q23 -17 52 -28.5t70 -11.5q23 0 44.5 6t39 17.5t28 27.5t10.5 35q0 20 -8.5 33t-23.5 22.5t-34.5 16t-42.5 13.5
q-106 33 -151.5 86.5t-45.5 112.5z" />
    <glyph glyph-name="t" unicode="t" horiz-adv-x="520" 
d="M492 407q-4 9 -10 26.5t-13.5 35t-16 30.5t-16.5 13h-104v-464q0 -8 5.5 -14t14 -10.5t18.5 -8t19 -7.5v-8h-258v8q9 4 19 7.5t18.5 8t14 10.5t5.5 14v464h-103q-8 0 -16.5 -13t-16 -30.5t-14 -35t-10.5 -26.5h-8l16 153h448l16 -153h-8z" />
    <glyph glyph-name="u" unicode="u" horiz-adv-x="582" 
d="M515 230q0 -66 -16 -112t-45.5 -75t-71 -42t-91.5 -13q-51 0 -92 13t-70.5 42t-45.5 75t-16 112v282q0 8 -6 14t-14.5 10.5t-18.5 8t-18 7.5v8h258v-8q-9 -4 -19 -7.5t-18.5 -8t-14 -10.5t-5.5 -14v-281q0 -54 9.5 -91t26.5 -59t40.5 -31.5t51.5 -9.5q27 0 50.5 9.5
t41 31.5t27 59t9.5 91v281q0 8 -5.5 14t-14 10.5t-18.5 8t-18 7.5v8h161v-8q-9 -4 -19 -7.5t-18.5 -8t-14 -10.5t-5.5 -14v-282z" />
    <glyph glyph-name="v" unicode="v" horiz-adv-x="581" 
d="M362 1h-144l-176 511q-2 8 -9 14t-16 10.5t-18.5 8t-18.5 7.5v8h258v-8q-8 -3 -17.5 -7t-17.5 -8.5t-13 -9.5t-5 -12l150 -436l143 439q-3 6 -10.5 11t-17 9t-20 7.5t-18.5 6.5v8h189v-8q-8 -4 -19 -7.5t-21.5 -8t-19 -10.5t-11.5 -14h-3z" />
    <glyph glyph-name="w" unicode="w" horiz-adv-x="853" 
d="M362 1h-144l-176 511q-2 8 -9 14t-16 10.5t-18.5 8t-18.5 7.5v8h258v-8q-8 -3 -17.5 -7t-17.5 -8.5t-13 -9.5t-5 -12l147 -427l71 282l-51 148q-7 13 -25 20t-34 14v8h257v-8q-8 -4 -17.5 -8t-18 -8.5t-13 -10t-2.5 -13.5h-1l146 -425l108 433q0 8 -7 14t-17.5 10.5
t-22.5 8t-21 7.5v8h189v-8q-7 -3 -17 -6.5t-20.5 -8t-19 -9.5t-12.5 -11l-130 -524h-144l-97 283z" />
    <glyph glyph-name="x" unicode="x" horiz-adv-x="712" 
d="M434 560h258v-8q-10 -3 -28 -7t-36.5 -8.5t-34.5 -10.5t-22 -14l-162 -180l216 -291q7 -6 18.5 -11t24.5 -8.5t25 -7t19 -6.5v-8h-304v8q8 3 17 8t16.5 10t12.5 10.5t4 9.5l-127 170l-146 -168q-6 -7 1 -12.5t19.5 -10.5t27.5 -9.5l25 -7.5v-8h-258v8q10 3 26.5 6.5
t34.5 8t34 10.5t23 13l183 210l-193 258q-6 8 -17 13t-23 9.5t-23.5 8t-19.5 7.5v8h305v-8q-7 -3 -17 -7.5t-19 -9.5t-15.5 -10t-6.5 -10l107 -143l130 144q2 6 -6.5 11.5t-20.5 10t-25.5 8t-22.5 6.5v8z" />
    <glyph glyph-name="y" unicode="y" horiz-adv-x="635" 
d="M400 560h254v-8q-10 -3 -26 -6.5t-33 -8t-32 -10t-23 -12.5l-151 -189v-278q0 -8 5.5 -14t14 -10.5t18.5 -8t19 -7.5v-8h-258v8q8 4 18 7.5t18.5 8t14.5 10.5t6 14v230l-191 238q-13 12 -36 20.5t-38 15.5v8h321v-8q-8 -4 -19 -8.5t-20 -10t-15 -10.5t-5 -10l117 -146
l119 148q2 6 -6.5 11.5t-21.5 10t-27 8.5t-23 7v8z" />
    <glyph glyph-name="z" unicode="z" horiz-adv-x="476" 
d="M30 407l16 153h400v-48l-249 -464h185q8 0 16.5 13t16 30.5t13.5 35t10 26.5h8l-16 -153h-400v48l249 464h-185q-8 0 -16.5 -13t-16 -30.5t-13.5 -35t-10 -26.5h-8z" />
    <glyph glyph-name="braceleft" unicode="{" horiz-adv-x="422" 
d="M256 514q0 -37 -6 -72t-19 -65t-34 -54t-51 -41q30 -16 51 -40.5t34 -54.5t19 -65t6 -72q0 -88 42.5 -132t113.5 -44v-60q-70 0 -122 17t-86 48t-51 74.5t-17 96.5q0 44 -6.5 81t-21.5 64t-39 42t-59 15v60q35 0 59 15.5t39 42.5t21.5 64t6.5 80q0 53 17 96.5t51 74.5
t86 48t122 17v-60q-71 0 -113.5 -44t-42.5 -132z" />
    <glyph glyph-name="bar" unicode="|" horiz-adv-x="130" 
d="M30 750h70v-953h-70v953z" />
    <glyph glyph-name="braceright" unicode="}" horiz-adv-x="422" 
d="M166.016 514q0 -37 6 -72q5.99902 -35 18.998 -65q13 -30 33.998 -54q20.999 -24 50.9971 -41q-29.998 -16 -50.9971 -40.5q-20.998 -24.5 -33.998 -54.5q-12.999 -30 -18.998 -65q-6 -35 -6 -72q0 -88 -42.4971 -132q-42.498 -44 -113.493 -44v-60q69.9951 0 121.992 17
t85.9951 48t50.9971 74.5q16.998 43.5 16.998 96.5q0 44 6.5 81t21.499 64t38.9971 42q23.999 15 58.9971 15v60q-34.998 0 -58.9971 15.5q-23.998 15.5 -38.9971 42.5t-21.499 64t-6.5 80q0 53 -16.998 96.5q-16.999 43.5 -50.9971 74.5t-85.9951 48t-121.992 17v-60
q70.9951 0 113.493 -44q42.4971 -44 42.4971 -132z" />
    <glyph glyph-name="exclamdown" unicode="&#xa1;" horiz-adv-x="240" 
d="M30 -149.957h180l-50 449.973h-80zM40 485.004q0 -35.998 22 -57.9961q22 -21.999 58 -21.999t58 21.999q22 21.998 22 57.9961t-22 57.9961q-22 21.999 -58 21.999t-58 -21.999q-22 -21.998 -22 -57.9961z" />
    <glyph glyph-name="cent" unicode="&#xa2;" horiz-adv-x="509" 
d="M300 -11q-58 0 -107.5 19.5t-85.5 56.5t-56.5 91.5t-20.5 123.5q0 66 18.5 119.5t53 92t84.5 59.5t112 21q45 0 81.5 -16.5t74.5 -42.5l16 -153h-8q-4 8 -10.5 24.5t-14 34.5t-16.5 35.5t-17 27.5q-22 16 -47.5 27t-60.5 11q-28 0 -50 -17t-37 -48.5t-23 -75.5t-8 -98
q0 -57 11 -101t29.5 -75t43.5 -47t53 -16t52 10t46 27q8 10 17 27t16.5 35t14 34.5t10.5 24.5h8l-16 -153q-37 -26 -73 -42t-90 -16zM268 702.813h70v-837.132h-70v837.132z" />
    <glyph glyph-name="sterling" unicode="&#xa3;" horiz-adv-x="474" 
d="M24 288h74q-1 16 -1 32.5v33.5q0 66 13.5 108t37 66.5t54 34t64.5 9.5q26 0 47 -4.5t39.5 -12t35.5 -18.5t36 -24l16 -153h-8q-4 8 -10.5 24.5t-14 35t-16.5 35.5t-17 27q-20 19 -39 28.5t-41 9.5t-33 -10.5t-15.5 -31.5t-4.5 -52v-72v-33.5t1 -32.5h100v-60h-100
q0 -46 -3 -89t-15 -91h142q8 0 20 13t24 30.5t22 35t14 26.5h8l-40 -153h-404v8q8 4 18.5 8.5t20.5 9.5t18.5 10t12.5 11q12 48 15 91.5t3 89.5h-74v60z" />
    <glyph glyph-name="yen" unicode="&#xa5;" horiz-adv-x="783" 
d="M495 700h318v-10q-12 -4 -32 -8.5t-41 -10t-40 -12.5t-29 -15l-190 -236v-58h115v-60h-115v-70h115v-60h-115v-100q0 -10 7 -17t18 -13t23.5 -10.5t22.5 -9.5v-10h-322v10q11 5 23 9.5t23 10.5t18 13t7 17v100h-114v60h114v70h-114v60h112l-237 296q-17 15 -44.5 25.5
t-47.5 18.5v10h401v-10q-10 -4 -24 -10.5t-25.5 -13.5t-18.5 -13.5t-4 -12.5l145 -181l148 184q4 8 -6 14.5t-26.5 12.5t-34.5 11t-30 9v10z" />
    <glyph glyph-name="dieresis" unicode="&#xa8;" horiz-adv-x="302" 
d="M30 623q0 22 13 35t35 13t35 -13t13 -35t-13 -35t-35 -13t-35 13t-13 35zM176 623q0 22 13 35t35 13t35 -13t13 -35t-13 -35t-35 -13t-35 13t-13 35z" />
    <glyph glyph-name="plusminus" unicode="&#xb1;" horiz-adv-x="380" 
d="M30 358h130v130h60v-130h130v-60h-130v-130h-60v130h-130v60zM50 95h280v-60h-280v60z" />
    <glyph glyph-name="acute" unicode="&#xb4;" horiz-adv-x="212" 
d="M30 588l96 124l56 -57l-124 -95z" />
    <glyph glyph-name="cedilla" unicode="&#xb8;" horiz-adv-x="296" 
d="M170 -40q45 0 70.5 -24.5t25.5 -69.5q0 -32 -13.5 -53t-33 -33t-41.5 -17t-39 -5q-26 0 -56.5 9.5t-52.5 25.5l34 48q17 -10 36 -16.5t39 -6.5q30 0 48.5 12t18.5 36q0 18 -9.5 26t-35.5 8q-11 0 -20 -1t-19 -2.5t-21.5 -3.5t-28.5 -5l51 112h70z" />
    <glyph glyph-name="questiondown" unicode="&#xbf;" horiz-adv-x="525" 
d="M30.0303 -9.96582q0 55.9971 15.499 88.9941q15.499 32.998 39.498 52.4971q23.998 19.499 50.9961 31.998q26.999 12.499 50.9971 28.498q23.999 15.999 39.498 39.998q15.499 23.998 15.499 67.9961h99.9932q0 -35.998 -8.99902 -60.9971
q-8.99902 -24.998 -22.499 -44.9971q-13.499 -19.998 -29.498 -37.9971t-29.498 -37.998t-22.499 -45.9971q-8.99902 -25.998 -8.99902 -61.9961q0 -57.9971 23.499 -83.9951q23.498 -25.998 54.4961 -25.998q14.999 0 30.998 12.499t29.498 32.498
q13.5 19.999 22.499 44.4971q8.99902 24.499 10.999 47.4971l102.994 -127.992q-41.998 -32.998 -99.4941 -53.4971q-57.4961 -20.498 -118.492 -20.498q-50.9971 0 -95.9941 11.499q-44.998 11.499 -78.4961 31.998t-52.9961 48.9971q-19.499 28.498 -19.499 62.4961z
M376.009 485.004q0 -35.998 -21.998 -57.9961q-21.999 -21.999 -57.9971 -21.999q-35.9971 0 -57.9961 21.999q-21.999 21.998 -21.999 57.9961t21.999 57.9961q21.999 21.999 57.9961 21.999q35.998 0 57.9971 -21.999q21.998 -21.998 21.998 -57.9961z" />
    <glyph glyph-name="Agrave" unicode="&#xc0;" horiz-adv-x="700" 
d="M-30 10q10 5 24.5 9.5t28.5 10.5t25 13t14 17l198 583q1 9 -5.5 15.5t-17 12t-23 10.5l-22.5 9v10h267l226 -828q10 -16 31 -25t40 -17v-10h-322v10q11 4 23.5 9t23.5 11t17 13.5t3 16.5h2l-95 348h-225l-58 -171q2 -9 11 -16t21 -12t25.5 -9.5t23.5 -9.5v-10h-236v10z
M204 288h187l-83 307zM287 870l56 57l96 -124l-28 -28z" />
    <glyph glyph-name="Aacute" unicode="&#xc1;" horiz-adv-x="700" 
d="M-30 10q10 5 24.5 9.5t28.5 10.5t25 13t14 17l198 583q1 9 -5.5 15.5t-17 12t-23 10.5l-22.5 9v10h267l226 -828q10 -16 31 -25t40 -17v-10h-322v10q11 4 23.5 9t23.5 11t17 13.5t3 16.5h2l-95 348h-225l-58 -171q2 -9 11 -16t21 -12t25.5 -9.5t23.5 -9.5v-10h-236v10z
M204 288h187l-83 307zM287 803l96 124l56 -57l-124 -95z" />
    <glyph glyph-name="Acircumflex" unicode="&#xc2;" horiz-adv-x="700" 
d="M-30 10q10 5 24.5 9.5t28.5 10.5t25 13t14 17l198 583q1 9 -5.5 15.5t-17 12t-23 10.5l-22.5 9v10h267l226 -828q10 -16 31 -25t40 -17v-10h-322v10q11 4 23.5 9t23.5 11t17 13.5t3 16.5h2l-95 348h-225l-58 -171q2 -9 11 -16t21 -12t25.5 -9.5t23.5 -9.5v-10h-236v10z
M204 288h187l-83 307zM385 927l147 -152h-79l-89 93l-90 -93h-79l147 152h43z" />
    <glyph glyph-name="Atilde" unicode="&#xc3;" horiz-adv-x="700" 
d="M-30 10q10 5 24.5 9.5t28.5 10.5t25 13t14 17l198 583q1 9 -5.5 15.5t-17 12t-23 10.5l-22.5 9v10h267l226 -828q10 -16 31 -25t40 -17v-10h-322v10q11 4 23.5 9t23.5 11t17 13.5t3 16.5h2l-95 348h-225l-58 -171q2 -9 11 -16t21 -12t25.5 -9.5t23.5 -9.5v-10h-236v10z
M204 288h187l-83 307zM202 790q0 67 30.5 98t75.5 31q31 0 47.5 -13t26.5 -29t19 -29t25 -13q20 0 29.5 15t9.5 51h60q0 -22 -7 -44.5t-20 -40.5t-31 -29.5t-41 -11.5q-31 0 -49.5 13t-30.5 29t-21.5 29t-23.5 13q-19 0 -29 -16t-10 -53h-60z" />
    <glyph glyph-name="Adieresis" unicode="&#xc4;" horiz-adv-x="700" 
d="M-30 10q10 5 24.5 9.5t28.5 10.5t25 13t14 17l198 583q1 9 -5.5 15.5t-17 12t-23 10.5l-22.5 9v10h267l226 -828q10 -16 31 -25t40 -17v-10h-322v10q11 4 23.5 9t23.5 11t17 13.5t3 16.5h2l-95 348h-225l-58 -171q2 -9 11 -16t21 -12t25.5 -9.5t23.5 -9.5v-10h-236v10z
M204 288h187l-83 307zM242 838q0 22 13 35t35 13t35 -13t13 -35t-13 -35t-35 -13t-35 13t-13 35zM388 838q0 22 13 35t35 13t35 -13t13 -35t-13 -35t-35 -13t-35 13t-13 35z" />
    <glyph glyph-name="Aring" unicode="&#xc5;" horiz-adv-x="700" 
d="M-30 10q10 5 24.5 9.5t28.5 10.5t25 13t14 17l198 583q1 9 -5.5 15.5t-17 12t-23 10.5l-22.5 9v10h267l226 -828q10 -16 31 -25t40 -17v-10h-322v10q11 4 23.5 9t23.5 11t17 13.5t3 16.5h2l-95 348h-225l-58 -171q2 -9 11 -16t21 -12t25.5 -9.5t23.5 -9.5v-10h-236v10z
M204 288h187l-83 307zM246 879q0 43 32 69t85 26t85 -26t32 -69t-32 -69t-85 -26t-85 26t-32 69zM316 883q0 -19 13.5 -29t33.5 -10q21 0 34 10t13 29t-13 30t-34 11q-20 0 -33.5 -11t-13.5 -30z" />
    <glyph glyph-name="AE" unicode="&#xc6;" horiz-adv-x="862" 
d="M-30 10q10 5 24.5 9.5t28.5 10.5t25 13t14 17l198 583q1 9 -5.5 15.5t-17 12t-23 10.5l-22.5 9v10h610l20 -191h-10q-4 11 -12 32.5t-17.5 43.5t-20 38.5t-20.5 16.5h-204v-257h149q10 0 15.5 8t8.5 21.5t4 30t2 32.5h10l40 -244h-10q-4 11 -12 26.5t-17.5 30t-20 25
t-20.5 10.5h-149v-263h224q10 0 20.5 16.5t20 38.5t17.5 44t12 32h10l-20 -191h-535v10q11 5 23 9.5t23 10.5t18 13t7 17v168h-175l-58 -171q2 -9 11 -16t21 -12t25.5 -9.5t23.5 -9.5v-10h-236v10zM204 288h154v352h-35z" />
    <glyph glyph-name="Ccedilla" unicode="&#xc7;" horiz-adv-x="611" 
d="M367 -14q-73 0 -135 24.5t-107 71t-70 114t-25 154.5q0 82 23 149.5t66.5 115.5t105.5 74t140 26q57 0 102.5 -20.5t92.5 -53.5l20 -191h-10q-4 11 -12.5 31.5t-18 43t-20.5 44t-21 33.5q-28 20 -59.5 34t-75.5 14q-35 0 -62.5 -21.5t-46.5 -61t-29 -94.5t-10 -122
q0 -70 13.5 -126t37 -94t54.5 -58.5t66 -20.5t65 13t58 33q10 12 21 33.5t20.5 44t18 43.5t12.5 31h10l-20 -191q-23 -16 -45 -29.5t-46 -23.5t-51.5 -15t-61.5 -5zM389 -38q45 0 70.5 -24.5t25.5 -69.5q0 -32 -13.5 -53t-33 -33t-41.5 -17t-39 -5q-26 0 -56.5 9.5
t-52.5 25.5l34 48q17 -10 36 -16.5t39 -6.5q30 0 48.5 12t18.5 36q0 18 -9.5 26t-35.5 8q-11 0 -20 -1t-19 -2.5t-21.5 -3.5t-28.5 -5l51 112h70z" />
    <glyph glyph-name="Egrave" unicode="&#xc8;" horiz-adv-x="585" 
d="M450 475l40 -244h-10q-4 11 -12 26.5t-17.5 30t-20 25t-20.5 10.5h-149v-263h224q10 0 20.5 16.5t20 38.5t17.5 44t12 32h10l-20 -191h-535v10q11 5 23 9.5t23 10.5t18 13t7 17v580q0 10 -7 17t-18 13t-23 11t-23 9v10h515l20 -191h-10q-4 11 -12 32.5t-17.5 43.5
t-20 38.5t-20.5 16.5h-204v-257h149q10 0 15.5 8t8.5 21.5t4 30t2 32.5h10zM212 870l56 57l96 -124l-28 -28z" />
    <glyph glyph-name="Eacute" unicode="&#xc9;" horiz-adv-x="585" 
d="M450 475l40 -244h-10q-4 11 -12 26.5t-17.5 30t-20 25t-20.5 10.5h-149v-263h224q10 0 20.5 16.5t20 38.5t17.5 44t12 32h10l-20 -191h-535v10q11 5 23 9.5t23 10.5t18 13t7 17v580q0 10 -7 17t-18 13t-23 11t-23 9v10h515l20 -191h-10q-4 11 -12 32.5t-17.5 43.5
t-20 38.5t-20.5 16.5h-204v-257h149q10 0 15.5 8t8.5 21.5t4 30t2 32.5h10zM212 803l96 124l56 -57l-124 -95z" />
    <glyph glyph-name="Ecircumflex" unicode="&#xca;" horiz-adv-x="585" 
d="M450 475l40 -244h-10q-4 11 -12 26.5t-17.5 30t-20 25t-20.5 10.5h-149v-263h224q10 0 20.5 16.5t20 38.5t17.5 44t12 32h10l-20 -191h-535v10q11 5 23 9.5t23 10.5t18 13t7 17v580q0 10 -7 17t-18 13t-23 11t-23 9v10h515l20 -191h-10q-4 11 -12 32.5t-17.5 43.5
t-20 38.5t-20.5 16.5h-204v-257h149q10 0 15.5 8t8.5 21.5t4 30t2 32.5h10zM310 927l147 -152h-79l-89 93l-90 -93h-79l147 152h43z" />
    <glyph glyph-name="Edieresis" unicode="&#xcb;" horiz-adv-x="585" 
d="M450 475l40 -244h-10q-4 11 -12 26.5t-17.5 30t-20 25t-20.5 10.5h-149v-263h224q10 0 20.5 16.5t20 38.5t17.5 44t12 32h10l-20 -191h-535v10q11 5 23 9.5t23 10.5t18 13t7 17v580q0 10 -7 17t-18 13t-23 11t-23 9v10h515l20 -191h-10q-4 11 -12 32.5t-17.5 43.5
t-20 38.5t-20.5 16.5h-204v-257h149q10 0 15.5 8t8.5 21.5t4 30t2 32.5h10zM167 838q0 22 13 35t35 13t35 -13t13 -35t-13 -35t-35 -13t-35 13t-13 35zM313 838q0 22 13 35t35 13t35 -13t13 -35t-13 -35t-35 -13t-35 13t-13 35z" />
    <glyph glyph-name="Igrave" unicode="&#xcc;" horiz-adv-x="342" 
d="M10 700h322v-10l-22.5 -9t-23.5 -11t-18 -13t-7 -17v-580q0 -10 7 -17t18 -13t23.5 -10.5t22.5 -9.5v-10h-322v10q11 5 23 9.5t23 10.5t18 13t7 17v580q0 10 -7 17t-18 13t-23 11t-23 9v10zM95 870l56 57l96 -124l-28 -28z" />
    <glyph glyph-name="Iacute" unicode="&#xcd;" horiz-adv-x="342" 
d="M10 700h322v-10l-22.5 -9t-23.5 -11t-18 -13t-7 -17v-580q0 -10 7 -17t18 -13t23.5 -10.5t22.5 -9.5v-10h-322v10q11 5 23 9.5t23 10.5t18 13t7 17v580q0 10 -7 17t-18 13t-23 11t-23 9v10zM95 803l96 124l56 -57l-124 -95z" />
    <glyph glyph-name="Icircumflex" unicode="&#xce;" horiz-adv-x="342" 
d="M10 700h322v-10l-22.5 -9t-23.5 -11t-18 -13t-7 -17v-580q0 -10 7 -17t18 -13t23.5 -10.5t22.5 -9.5v-10h-322v10q11 5 23 9.5t23 10.5t18 13t7 17v580q0 10 -7 17t-18 13t-23 11t-23 9v10zM193 927l147 -152h-79l-89 93l-90 -93h-79l147 152h43z" />
    <glyph glyph-name="Idieresis" unicode="&#xcf;" horiz-adv-x="342" 
d="M10 700h322v-10l-22.5 -9t-23.5 -11t-18 -13t-7 -17v-580q0 -10 7 -17t18 -13t23.5 -10.5t22.5 -9.5v-10h-322v10q11 5 23 9.5t23 10.5t18 13t7 17v580q0 10 -7 17t-18 13t-23 11t-23 9v10zM50 838q0 22 13 35t35 13t35 -13t13 -35t-13 -35t-35 -13t-35 13t-13 35z
M196 838q0 22 13 35t35 13t35 -13t13 -35t-13 -35t-35 -13t-35 13t-13 35z" />
    <glyph glyph-name="Eth" unicode="&#xd0;" horiz-adv-x="719" 
d="M52 700h314q82 0 143 -25t101 -71t59.5 -111t19.5 -144t-22 -143t-64 -110t-103 -71t-139 -25h-309v10q11 5 23 9.5t23 10.5t18 13t7 17v238h-113v60h113v282q0 10 -7 17t-18 13t-23 11t-23 9v10zM303 60h54q37 0 64.5 20.5t46 58t27.5 90.5t9 118t-8.5 119t-27.5 92.5
t-50 60t-75 21.5h-40v-282h101v-60h-101v-238z" />
    <glyph glyph-name="Ntilde" unicode="&#xd1;" horiz-adv-x="688" 
d="M91 700l-81 70l280 -70l257 -568v508q0 10 -7 17t-18 13t-23 11t-23 9v10h202v-10l-22.5 -9t-23.5 -11t-18 -13t-7 -17v-640l53 -142l-252 142l-257 568v-508q0 -10 7 -17t18 -13t23.5 -10.5t22.5 -9.5v-10h-202v10q11 5 23 9.5t23 10.5t18 13t7 17v640zM183 860
q0 67 30.5 98t75.5 31q31 0 47.5 -13t26.5 -29t19 -29t25 -13q20 0 29.5 15t9.5 51h60q0 -22 -7 -44.5t-20 -40.5t-31 -29.5t-41 -11.5q-31 0 -49.5 13t-30.5 29t-21.5 29t-23.5 13q-19 0 -29 -16t-10 -53h-60z" />
    <glyph glyph-name="Ograve" unicode="&#xd2;" horiz-adv-x="697" 
d="M30 350q0 82 23 149.5t64.5 115.5t100.5 74t131 26t130.5 -26t100 -74t64.5 -115.5t23 -149.5t-23 -149.5t-64.5 -115.5t-100 -74t-130.5 -26t-131 26t-100.5 74t-64.5 115.5t-23 149.5zM215 351q0 -68 9.5 -123.5t27.5 -95t42.5 -61t54.5 -21.5t54.5 21.5t42 61t27 95
t9.5 123.5q0 67 -9.5 122t-27 94.5t-42 61t-54.5 21.5t-54.5 -21.5t-42.5 -61t-27.5 -94.5t-9.5 -122zM273 885l56 57l96 -124l-28 -28z" />
    <glyph glyph-name="Oacute" unicode="&#xd3;" horiz-adv-x="697" 
d="M30 350q0 82 23 149.5t64.5 115.5t100.5 74t131 26t130.5 -26t100 -74t64.5 -115.5t23 -149.5t-23 -149.5t-64.5 -115.5t-100 -74t-130.5 -26t-131 26t-100.5 74t-64.5 115.5t-23 149.5zM215 351q0 -68 9.5 -123.5t27.5 -95t42.5 -61t54.5 -21.5t54.5 21.5t42 61t27 95
t9.5 123.5q0 67 -9.5 122t-27 94.5t-42 61t-54.5 21.5t-54.5 -21.5t-42.5 -61t-27.5 -94.5t-9.5 -122zM273 818l96 124l56 -57l-124 -95z" />
    <glyph glyph-name="Ocircumflex" unicode="&#xd4;" horiz-adv-x="697" 
d="M30 350q0 82 23 149.5t64.5 115.5t100.5 74t131 26t130.5 -26t100 -74t64.5 -115.5t23 -149.5t-23 -149.5t-64.5 -115.5t-100 -74t-130.5 -26t-131 26t-100.5 74t-64.5 115.5t-23 149.5zM215 351q0 -68 9.5 -123.5t27.5 -95t42.5 -61t54.5 -21.5t54.5 21.5t42 61t27 95
t9.5 123.5q0 67 -9.5 122t-27 94.5t-42 61t-54.5 21.5t-54.5 -21.5t-42.5 -61t-27.5 -94.5t-9.5 -122zM371 942l147 -152h-79l-89 93l-90 -93h-79l147 152h43z" />
    <glyph glyph-name="Otilde" unicode="&#xd5;" horiz-adv-x="697" 
d="M30 350q0 82 23 149.5t64.5 115.5t100.5 74t131 26t130.5 -26t100 -74t64.5 -115.5t23 -149.5t-23 -149.5t-64.5 -115.5t-100 -74t-130.5 -26t-131 26t-100.5 74t-64.5 115.5t-23 149.5zM215 351q0 -68 9.5 -123.5t27.5 -95t42.5 -61t54.5 -21.5t54.5 21.5t42 61t27 95
t9.5 123.5q0 67 -9.5 122t-27 94.5t-42 61t-54.5 21.5t-54.5 -21.5t-42.5 -61t-27.5 -94.5t-9.5 -122zM188 805q0 67 30.5 98t75.5 31q31 0 47.5 -13t26.5 -29t19 -29t25 -13q20 0 29.5 15t9.5 51h60q0 -22 -7 -44.5t-20 -40.5t-31 -29.5t-41 -11.5q-31 0 -49.5 13t-30.5 29
t-21.5 29t-23.5 13q-19 0 -29 -16t-10 -53h-60z" />
    <glyph glyph-name="Odieresis" unicode="&#xd6;" horiz-adv-x="697" 
d="M30 350q0 82 23 149.5t64.5 115.5t100.5 74t131 26t130.5 -26t100 -74t64.5 -115.5t23 -149.5t-23 -149.5t-64.5 -115.5t-100 -74t-130.5 -26t-131 26t-100.5 74t-64.5 115.5t-23 149.5zM215 351q0 -68 9.5 -123.5t27.5 -95t42.5 -61t54.5 -21.5t54.5 21.5t42 61t27 95
t9.5 123.5q0 67 -9.5 122t-27 94.5t-42 61t-54.5 21.5t-54.5 -21.5t-42.5 -61t-27.5 -94.5t-9.5 -122zM228 853q0 22 13 35t35 13t35 -13t13 -35t-13 -35t-35 -13t-35 13t-13 35zM374 853q0 22 13 35t35 13t35 -13t13 -35t-13 -35t-35 -13t-35 13t-13 35z" />
    <glyph glyph-name="multiply" unicode="&#xd7;" horiz-adv-x="328" 
d="M72 462l92 -92l92 92l42 -42l-92 -92l92 -92l-42 -42l-92 92l-92 -92l-42 42l92 92l-92 92z" />
    <glyph glyph-name="Oslash" unicode="&#xd8;" horiz-adv-x="697" 
d="M30 350q0 82 23 149.5t64.5 115.5t100.5 74t131 26q57 0 105.5 -16.5t87.5 -47.5l39 49h86l-77 -98q37 -48 57 -111t20 -141q0 -82 -23 -149.5t-64.5 -115.5t-100 -74t-130.5 -26q-57 0 -106 16.5t-88 47.5l-39 -49h-86l77 98q-37 48 -57 111t-20 141zM215 351
q0 -29 1.5 -55.5t5.5 -51.5l234 297q-18 52 -45 80.5t-62 28.5q-30 0 -54.5 -21.5t-42.5 -61t-27.5 -94.5t-9.5 -122zM242 159q17 -52 44.5 -80.5t62.5 -28.5q30 0 54.5 21.5t42 61t27 95t9.5 123.5q0 29 -1.5 55t-5.5 50z" />
    <glyph glyph-name="Ugrave" unicode="&#xd9;" horiz-adv-x="722" 
d="M641 288q0 -82 -20 -139.5t-57 -94t-88.5 -53t-114.5 -16.5t-114.5 16.5t-88.5 53t-57 94t-20 139.5v352q0 10 -7 17t-18 13t-23 11t-23 9v10h322v-10l-22.5 -9t-23.5 -11t-18 -13t-7 -17v-351q0 -68 12 -114t33 -73.5t50.5 -39.5t64.5 -12q34 0 63.5 12t51 39.5
t33.5 73.5t12 114v351q0 10 -7 17t-17.5 13t-22.5 11t-23 9v10h201v-10l-22.5 -9t-23.5 -11t-18 -13t-7 -17v-352zM285 870l56 57l96 -124l-28 -28z" />
    <glyph glyph-name="Uacute" unicode="&#xda;" horiz-adv-x="722" 
d="M641 288q0 -82 -20 -139.5t-57 -94t-88.5 -53t-114.5 -16.5t-114.5 16.5t-88.5 53t-57 94t-20 139.5v352q0 10 -7 17t-18 13t-23 11t-23 9v10h322v-10l-22.5 -9t-23.5 -11t-18 -13t-7 -17v-351q0 -68 12 -114t33 -73.5t50.5 -39.5t64.5 -12q34 0 63.5 12t51 39.5
t33.5 73.5t12 114v351q0 10 -7 17t-17.5 13t-22.5 11t-23 9v10h201v-10l-22.5 -9t-23.5 -11t-18 -13t-7 -17v-352zM285 803l96 124l56 -57l-124 -95z" />
    <glyph glyph-name="Ucircumflex" unicode="&#xdb;" horiz-adv-x="722" 
d="M641 288q0 -82 -20 -139.5t-57 -94t-88.5 -53t-114.5 -16.5t-114.5 16.5t-88.5 53t-57 94t-20 139.5v352q0 10 -7 17t-18 13t-23 11t-23 9v10h322v-10l-22.5 -9t-23.5 -11t-18 -13t-7 -17v-351q0 -68 12 -114t33 -73.5t50.5 -39.5t64.5 -12q34 0 63.5 12t51 39.5
t33.5 73.5t12 114v351q0 10 -7 17t-17.5 13t-22.5 11t-23 9v10h201v-10l-22.5 -9t-23.5 -11t-18 -13t-7 -17v-352zM383 927l147 -152h-79l-89 93l-90 -93h-79l147 152h43z" />
    <glyph glyph-name="Udieresis" unicode="&#xdc;" horiz-adv-x="722" 
d="M641 288q0 -82 -20 -139.5t-57 -94t-88.5 -53t-114.5 -16.5t-114.5 16.5t-88.5 53t-57 94t-20 139.5v352q0 10 -7 17t-18 13t-23 11t-23 9v10h322v-10l-22.5 -9t-23.5 -11t-18 -13t-7 -17v-351q0 -68 12 -114t33 -73.5t50.5 -39.5t64.5 -12q34 0 63.5 12t51 39.5
t33.5 73.5t12 114v351q0 10 -7 17t-17.5 13t-22.5 11t-23 9v10h201v-10l-22.5 -9t-23.5 -11t-18 -13t-7 -17v-352zM240 838q0 22 13 35t35 13t35 -13t13 -35t-13 -35t-35 -13t-35 13t-13 35zM386 838q0 22 13 35t35 13t35 -13t13 -35t-13 -35t-35 -13t-35 13t-13 35z" />
    <glyph glyph-name="Yacute" unicode="&#xdd;" horiz-adv-x="783" 
d="M495 700h318v-10q-12 -4 -32 -8.5t-41 -10t-40 -12.5t-29 -15l-190 -236v-348q0 -10 7 -17t18 -13t23.5 -10.5t22.5 -9.5v-10h-322v10q11 5 23 9.5t23 10.5t18 13t7 17v288l-239 298q-17 15 -44.5 25.5t-47.5 18.5v10h401v-10q-10 -4 -24 -10.5t-25.5 -13.5t-18.5 -13.5
t-4 -12.5l145 -181l148 184q4 8 -6 14.5t-26.5 12.5t-34.5 11t-30 9v10zM316 803l96 124l56 -57l-124 -95z" />
    <glyph glyph-name="Thorn" unicode="&#xde;" horiz-adv-x="635" 
d="M10 10q11 5 23 9.5t23 10.5t18 13t7 17v580q0 10 -7 17t-18 13t-23 11t-23 9v10h322v-10l-22.5 -9t-23.5 -11t-18 -13t-7 -17v-77h54q77 0 133.5 -15.5t94 -43t56 -67t18.5 -87.5t-20.5 -87t-60 -66.5t-96.5 -43t-130 -15.5h-49v-78q0 -10 7 -17t18 -13t23.5 -10.5
t22.5 -9.5v-10h-322v10zM261 198h40q66 0 98.5 41t32.5 110q0 34 -7.5 62.5t-24.5 48.5t-44.5 31.5t-66.5 11.5h-28v-305z" />
    <glyph glyph-name="germandbls" unicode="&#xdf;" horiz-adv-x="558" 
d="M380 120q0 27 -19 50.5t-41.5 43t-41.5 34.5t-19 27q0 19 11.5 27t25 17.5t25 27t11.5 55.5q0 24 -0.5 46.5t-6 39t-17 26.5t-33.5 10q-21 0 -34 -14t-19.5 -31.5t-8.5 -33t-2 -17.5v-428h-201v8q8 4 18 7.5t18.5 8t14.5 10.5t6 14v298q0 85 21.5 131t53 67t66 24.5
t61.5 3.5q59 0 99.5 -12.5t65 -33.5t35.5 -50t11 -62q0 -39 -13 -58t-29 -28.5t-29 -14.5t-13 -17q0 -8 10 -12.5t24.5 -10t31.5 -14.5t31.5 -24t24.5 -39t10 -61q0 -51 -19 -80t-45.5 -44t-55 -19t-46.5 -4q-25 0 -47 5.5t-39.5 13t-30.5 16.5t-21 15l9 65q26 -31 44 -46
t43 -15q24 0 42 22.5t18 55.5z" />
    <glyph glyph-name="agrave" unicode="&#xe0;" horiz-adv-x="568" 
d="M-20 8q8 4 19.5 7.5t22.5 8t20 10.5t12 14l158 466q1 7 -4.5 12.5t-13.5 10t-18 8t-18 7.5v8h213l156 -512h1q5 -16 24 -24t36 -16v-8h-258v8q8 3 17.5 7t18 8t14 9.5t5.5 11.5l-43 138h-192l-46 -137q2 -7 9 -12.5t17 -9.5t20.5 -7.5t18.5 -7.5v-8h-189v8zM167 230h161
l-77 251zM208 730l56 57l96 -124l-28 -28z" />
    <glyph glyph-name="aacute" unicode="&#xe1;" horiz-adv-x="568" 
d="M-20 8q8 4 19.5 7.5t22.5 8t20 10.5t12 14l158 466q1 7 -4.5 12.5t-13.5 10t-18 8t-18 7.5v8h213l156 -512h1q5 -16 24 -24t36 -16v-8h-258v8q8 3 17.5 7t18 8t14 9.5t5.5 11.5l-43 138h-192l-46 -137q2 -7 9 -12.5t17 -9.5t20.5 -7.5t18.5 -7.5v-8h-189v8zM167 230h161
l-77 251zM208 663l96 124l56 -57l-124 -95z" />
    <glyph glyph-name="acircumflex" unicode="&#xe2;" horiz-adv-x="568" 
d="M-20 8q8 4 19.5 7.5t22.5 8t20 10.5t12 14l158 466q1 7 -4.5 12.5t-13.5 10t-18 8t-18 7.5v8h213l156 -512h1q5 -16 24 -24t36 -16v-8h-258v8q8 3 17.5 7t18 8t14 9.5t5.5 11.5l-43 138h-192l-46 -137q2 -7 9 -12.5t17 -9.5t20.5 -7.5t18.5 -7.5v-8h-189v8zM167 230h161
l-77 251zM306 787l147 -152h-79l-89 93l-90 -93h-79l147 152h43z" />
    <glyph glyph-name="atilde" unicode="&#xe3;" horiz-adv-x="568" 
d="M-20 8q8 4 19.5 7.5t22.5 8t20 10.5t12 14l158 466q1 7 -4.5 12.5t-13.5 10t-18 8t-18 7.5v8h213l156 -512h1q5 -16 24 -24t36 -16v-8h-258v8q8 3 17.5 7t18 8t14 9.5t5.5 11.5l-43 138h-192l-46 -137q2 -7 9 -12.5t17 -9.5t20.5 -7.5t18.5 -7.5v-8h-189v8zM167 230h161
l-77 251zM123 650q0 67 30.5 98t75.5 31q31 0 47.5 -13t26.5 -29t19 -29t25 -13q20 0 29.5 15t9.5 51h60q0 -22 -7 -44.5t-20 -40.5t-31 -29.5t-41 -11.5q-31 0 -49.5 13t-30.5 29t-21.5 29t-23.5 13q-19 0 -29 -16t-10 -53h-60z" />
    <glyph glyph-name="adieresis" unicode="&#xe4;" horiz-adv-x="568" 
d="M-20 8q8 4 19.5 7.5t22.5 8t20 10.5t12 14l158 466q1 7 -4.5 12.5t-13.5 10t-18 8t-18 7.5v8h213l156 -512h1q5 -16 24 -24t36 -16v-8h-258v8q8 3 17.5 7t18 8t14 9.5t5.5 11.5l-43 138h-192l-46 -137q2 -7 9 -12.5t17 -9.5t20.5 -7.5t18.5 -7.5v-8h-189v8zM167 230h161
l-77 251zM163 698q0 22 13 35t35 13t35 -13t13 -35t-13 -35t-35 -13t-35 13t-13 35zM309 698q0 22 13 35t35 13t35 -13t13 -35t-13 -35t-35 -13t-35 13t-13 35z" />
    <glyph glyph-name="aring" unicode="&#xe5;" horiz-adv-x="568" 
d="M-20 8q8 4 19.5 7.5t22.5 8t20 10.5t12 14l158 466q1 7 -4.5 12.5t-13.5 10t-18 8t-18 7.5v8h213l156 -512h1q5 -16 24 -24t36 -16v-8h-258v8q8 3 17.5 7t18 8t14 9.5t5.5 11.5l-43 138h-192l-46 -137q2 -7 9 -12.5t17 -9.5t20.5 -7.5t18.5 -7.5v-8h-189v8zM167 230h161
l-77 251zM167 739q0 43 32 69t85 26t85 -26t32 -69t-32 -69t-85 -26t-85 26t-32 69zM237 743q0 -19 13.5 -29t33.5 -10q21 0 34 10t13 29t-13 30t-34 11q-20 0 -33.5 -11t-13.5 -30z" />
    <glyph glyph-name="ae" unicode="&#xe6;" horiz-adv-x="698" 
d="M-20 8q8 4 19.5 7.5t22.5 8t20 10.5t12 14l158 466q1 7 -4.5 12.5t-13.5 10t-18 8t-18 7.5v8h488l16 -153h-8q-4 9 -10.5 26.5t-14 35t-15.5 30.5t-16 13h-164v-206h120q8 0 12 6.5t6.5 17t3.5 24t2 26.5h8l32 -195h-8q-4 9 -10.5 21.5t-14 24t-15.5 19.5t-16 8h-120
v-210h180q8 0 16 13t15.5 30.5t14 35t10.5 26.5h8l-16 -153h-428v8q8 4 18 7.5t18.5 8t14 10.5t5.5 14v134h-140l-46 -137q2 -7 9 -12.5t17 -9.5t20.5 -7.5t18.5 -7.5v-8h-189v8zM167 230h123v282h-28z" />
    <glyph glyph-name="ccedilla" unicode="&#xe7;" horiz-adv-x="509" 
d="M300 -11q-58 0 -107.5 19.5t-85.5 56.5t-56.5 91.5t-20.5 123.5q0 66 18.5 119.5t53 92t84.5 59.5t112 21q45 0 81.5 -16.5t74.5 -42.5l16 -153h-8q-4 8 -10.5 24.5t-14 34.5t-16.5 35.5t-17 27.5q-22 16 -47.5 27t-60.5 11q-28 0 -50 -17t-37 -48.5t-23 -75.5t-8 -98
q0 -57 11 -101t29.5 -75t43.5 -47t53 -16t52 10t46 27q8 10 17 27t16.5 35t14 34.5t10.5 24.5h8l-16 -153q-37 -26 -73 -42t-90 -16zM322 -40q45 0 70.5 -24.5t25.5 -69.5q0 -32 -13.5 -53t-33 -33t-41.5 -17t-39 -5q-26 0 -56.5 9.5t-52.5 25.5l34 48q17 -10 36 -16.5
t39 -6.5q30 0 48.5 12t18.5 36q0 18 -9.5 26t-35.5 8q-11 0 -20 -1t-19 -2.5t-21.5 -3.5t-28.5 -5l51 112h70z" />
    <glyph glyph-name="egrave" unicode="&#xe8;" horiz-adv-x="474" 
d="M362 380l32 -195h-8q-4 9 -10 21.5t-13.5 24t-16 19.5t-16.5 8h-119v-210h179q8 0 16.5 13t16 30.5t13.5 35t10 26.5h8l-16 -153h-428v8q8 4 18 7.5t18.5 8t14.5 10.5t6 14v464q0 8 -6 14t-14.5 10.5t-18.5 8t-18 7.5v8h412l16 -153h-8q-4 9 -10 26.5t-13.5 35t-16 30.5
t-16.5 13h-163v-206h119q8 0 12.5 6.5t6.5 17t3 24t2 26.5h8zM156 730l56 57l96 -124l-28 -28z" />
    <glyph glyph-name="eacute" unicode="&#xe9;" horiz-adv-x="474" 
d="M362 380l32 -195h-8q-4 9 -10 21.5t-13.5 24t-16 19.5t-16.5 8h-119v-210h179q8 0 16.5 13t16 30.5t13.5 35t10 26.5h8l-16 -153h-428v8q8 4 18 7.5t18.5 8t14.5 10.5t6 14v464q0 8 -6 14t-14.5 10.5t-18.5 8t-18 7.5v8h412l16 -153h-8q-4 9 -10 26.5t-13.5 35t-16 30.5
t-16.5 13h-163v-206h119q8 0 12.5 6.5t6.5 17t3 24t2 26.5h8zM156 663l96 124l56 -57l-124 -95z" />
    <glyph glyph-name="ecircumflex" unicode="&#xea;" horiz-adv-x="474" 
d="M362 380l32 -195h-8q-4 9 -10 21.5t-13.5 24t-16 19.5t-16.5 8h-119v-210h179q8 0 16.5 13t16 30.5t13.5 35t10 26.5h8l-16 -153h-428v8q8 4 18 7.5t18.5 8t14.5 10.5t6 14v464q0 8 -6 14t-14.5 10.5t-18.5 8t-18 7.5v8h412l16 -153h-8q-4 9 -10 26.5t-13.5 35t-16 30.5
t-16.5 13h-163v-206h119q8 0 12.5 6.5t6.5 17t3 24t2 26.5h8zM254 787l147 -152h-79l-89 93l-90 -93h-79l147 152h43z" />
    <glyph glyph-name="edieresis" unicode="&#xeb;" horiz-adv-x="474" 
d="M362 380l32 -195h-8q-4 9 -10 21.5t-13.5 24t-16 19.5t-16.5 8h-119v-210h179q8 0 16.5 13t16 30.5t13.5 35t10 26.5h8l-16 -153h-428v8q8 4 18 7.5t18.5 8t14.5 10.5t6 14v464q0 8 -6 14t-14.5 10.5t-18.5 8t-18 7.5v8h412l16 -153h-8q-4 9 -10 26.5t-13.5 35t-16 30.5
t-16.5 13h-163v-206h119q8 0 12.5 6.5t6.5 17t3 24t2 26.5h8zM111 698q0 22 13 35t35 13t35 -13t13 -35t-13 -35t-35 -13t-35 13t-13 35zM257 698q0 22 13 35t35 13t35 -13t13 -35t-13 -35t-35 -13t-35 13t-13 35z" />
    <glyph glyph-name="igrave" unicode="&#xec;" horiz-adv-x="278" 
d="M10 560h258v-8q-9 -4 -19 -7.5t-18.5 -8t-14 -10.5t-5.5 -14v-464q0 -8 5.5 -14t14 -10.5t18.5 -8t19 -7.5v-8h-258v8q8 4 18 7.5t18.5 8t14.5 10.5t6 14v464q0 8 -6 14t-14.5 10.5t-18.5 8t-18 7.5v8zM63 730l56 57l96 -124l-28 -28z" />
    <glyph glyph-name="iacute" unicode="&#xed;" horiz-adv-x="278" 
d="M10 560h258v-8q-9 -4 -19 -7.5t-18.5 -8t-14 -10.5t-5.5 -14v-464q0 -8 5.5 -14t14 -10.5t18.5 -8t19 -7.5v-8h-258v8q8 4 18 7.5t18.5 8t14.5 10.5t6 14v464q0 8 -6 14t-14.5 10.5t-18.5 8t-18 7.5v8zM63 663l96 124l56 -57l-124 -95z" />
    <glyph glyph-name="icircumflex" unicode="&#xee;" horiz-adv-x="278" 
d="M10 560h258v-8q-9 -4 -19 -7.5t-18.5 -8t-14 -10.5t-5.5 -14v-464q0 -8 5.5 -14t14 -10.5t18.5 -8t19 -7.5v-8h-258v8q8 4 18 7.5t18.5 8t14.5 10.5t6 14v464q0 8 -6 14t-14.5 10.5t-18.5 8t-18 7.5v8zM161 787l147 -152h-79l-89 93l-90 -93h-79l147 152h43z" />
    <glyph glyph-name="idieresis" unicode="&#xef;" horiz-adv-x="278" 
d="M10 560h258v-8q-9 -4 -19 -7.5t-18.5 -8t-14 -10.5t-5.5 -14v-464q0 -8 5.5 -14t14 -10.5t18.5 -8t19 -7.5v-8h-258v8q8 4 18 7.5t18.5 8t14.5 10.5t6 14v464q0 8 -6 14t-14.5 10.5t-18.5 8t-18 7.5v8zM18 698q0 22 13 35t35 13t35 -13t13 -35t-13 -35t-35 -13t-35 13
t-13 35zM164 698q0 22 13 35t35 13t35 -13t13 -35t-13 -35t-35 -13t-35 13t-13 35z" />
    <glyph glyph-name="ntilde" unicode="&#xf1;" horiz-adv-x="546" 
d="M10 8q8 4 18 7.5t18.5 8t14.5 10.5t6 14v464q0 8 -6 14t-14.5 10.5t-18.5 8t-18 7.5v8h216l206 -454v406q0 8 -6 14t-14.5 10.5t-18.5 8t-18 7.5v8h161v-8q-8 -4 -18 -7.5t-18.5 -8t-14 -10.5t-5.5 -14v-512h-160l-205 454v-406q0 -8 5.5 -14t14 -10.5t18.5 -8t19 -7.5
v-8h-162v8zM112 650q0 67 30.5 98t75.5 31q31 0 47.5 -13t26.5 -29t19 -29t25 -13q20 0 29.5 15t9.5 51h60q0 -22 -7 -44.5t-20 -40.5t-31 -29.5t-41 -11.5q-31 0 -49.5 13t-30.5 29t-21.5 29t-23.5 13q-19 0 -29 -16t-10 -53h-60z" />
    <glyph glyph-name="ograve" unicode="&#xf2;" horiz-adv-x="570" 
d="M30 280q0 66 18.5 119.5t52 92t80.5 59.5t104 21t104 -21t80.5 -59.5t52 -92t18.5 -119.5t-18.5 -119.5t-52 -92t-80.5 -59.5t-104 -21t-104 21t-80.5 59.5t-52 92t-18.5 119.5zM178 281q0 -54 7.5 -98.5t22 -76t34 -49t43.5 -17.5t43.5 17.5t33.5 49t22 76t8 98.5t-8 98
t-22 75.5t-33.5 48.5t-43.5 17t-43.5 -17t-34 -48.5t-22 -75.5t-7.5 -98zM209 742l56 57l96 -124l-28 -28z" />
    <glyph glyph-name="oacute" unicode="&#xf3;" horiz-adv-x="570" 
d="M30 280q0 66 18.5 119.5t52 92t80.5 59.5t104 21t104 -21t80.5 -59.5t52 -92t18.5 -119.5t-18.5 -119.5t-52 -92t-80.5 -59.5t-104 -21t-104 21t-80.5 59.5t-52 92t-18.5 119.5zM178 281q0 -54 7.5 -98.5t22 -76t34 -49t43.5 -17.5t43.5 17.5t33.5 49t22 76t8 98.5t-8 98
t-22 75.5t-33.5 48.5t-43.5 17t-43.5 -17t-34 -48.5t-22 -75.5t-7.5 -98zM209 675l96 124l56 -57l-124 -95z" />
    <glyph glyph-name="ocircumflex" unicode="&#xf4;" horiz-adv-x="570" 
d="M30 280q0 66 18.5 119.5t52 92t80.5 59.5t104 21t104 -21t80.5 -59.5t52 -92t18.5 -119.5t-18.5 -119.5t-52 -92t-80.5 -59.5t-104 -21t-104 21t-80.5 59.5t-52 92t-18.5 119.5zM178 281q0 -54 7.5 -98.5t22 -76t34 -49t43.5 -17.5t43.5 17.5t33.5 49t22 76t8 98.5t-8 98
t-22 75.5t-33.5 48.5t-43.5 17t-43.5 -17t-34 -48.5t-22 -75.5t-7.5 -98zM307 799l147 -152h-79l-89 93l-90 -93h-79l147 152h43z" />
    <glyph glyph-name="otilde" unicode="&#xf5;" horiz-adv-x="570" 
d="M30 280q0 66 18.5 119.5t52 92t80.5 59.5t104 21t104 -21t80.5 -59.5t52 -92t18.5 -119.5t-18.5 -119.5t-52 -92t-80.5 -59.5t-104 -21t-104 21t-80.5 59.5t-52 92t-18.5 119.5zM178 281q0 -54 7.5 -98.5t22 -76t34 -49t43.5 -17.5t43.5 17.5t33.5 49t22 76t8 98.5t-8 98
t-22 75.5t-33.5 48.5t-43.5 17t-43.5 -17t-34 -48.5t-22 -75.5t-7.5 -98zM124 662q0 67 30.5 98t75.5 31q31 0 47.5 -13t26.5 -29t19 -29t25 -13q20 0 29.5 15t9.5 51h60q0 -22 -7 -44.5t-20 -40.5t-31 -29.5t-41 -11.5q-31 0 -49.5 13t-30.5 29t-21.5 29t-23.5 13
q-19 0 -29 -16t-10 -53h-60z" />
    <glyph glyph-name="odieresis" unicode="&#xf6;" horiz-adv-x="570" 
d="M30 280q0 66 18.5 119.5t52 92t80.5 59.5t104 21t104 -21t80.5 -59.5t52 -92t18.5 -119.5t-18.5 -119.5t-52 -92t-80.5 -59.5t-104 -21t-104 21t-80.5 59.5t-52 92t-18.5 119.5zM178 281q0 -54 7.5 -98.5t22 -76t34 -49t43.5 -17.5t43.5 17.5t33.5 49t22 76t8 98.5t-8 98
t-22 75.5t-33.5 48.5t-43.5 17t-43.5 -17t-34 -48.5t-22 -75.5t-7.5 -98zM164 710q0 22 13 35t35 13t35 -13t13 -35t-13 -35t-35 -13t-35 13t-13 35zM310 710q0 22 13 35t35 13t35 -13t13 -35t-13 -35t-35 -13t-35 13t-13 35z" />
    <glyph glyph-name="divide" unicode="&#xf7;" horiz-adv-x="340" 
d="M120 420q0 23 13.5 36.5t36.5 13.5t36.5 -13.5t13.5 -36.5t-13.5 -36.5t-36.5 -13.5t-36.5 13.5t-13.5 36.5zM30 305h280v-60h-280v60zM120 130q0 23 13.5 36.5t36.5 13.5t36.5 -13.5t13.5 -36.5t-13.5 -36.5t-36.5 -13.5t-36.5 13.5t-13.5 36.5z" />
    <glyph glyph-name="oslash" unicode="&#xf8;" horiz-adv-x="570" 
d="M454 560h86l-60 -81q29 -38 44.5 -88t15.5 -111q0 -66 -18.5 -119.5t-52 -92t-80.5 -59.5t-104 -21q-41 0 -76 10.5t-64 30.5l-22 -29h-86l57 76q-31 38 -47.5 89.5t-16.5 114.5q0 66 18.5 119.5t52 92t80.5 59.5t104 21q42 0 78.5 -11.5t66.5 -32.5zM178 281
q0 -23 1.5 -44t3.5 -40l184 246q-14 37 -35 57t-47 20q-24 0 -43.5 -17t-34 -48.5t-22 -75.5t-7.5 -98zM206 111q14 -34 34 -52.5t45 -18.5q24 0 43.5 17.5t33.5 49t22 76t8 98.5q0 20 -1 38.5t-3 35.5z" />
    <glyph glyph-name="ugrave" unicode="&#xf9;" horiz-adv-x="582" 
d="M515 230q0 -66 -16 -112t-45.5 -75t-71 -42t-91.5 -13q-51 0 -92 13t-70.5 42t-45.5 75t-16 112v282q0 8 -6 14t-14.5 10.5t-18.5 8t-18 7.5v8h258v-8q-9 -4 -19 -7.5t-18.5 -8t-14 -10.5t-5.5 -14v-281q0 -54 9.5 -91t26.5 -59t40.5 -31.5t51.5 -9.5q27 0 50.5 9.5
t41 31.5t27 59t9.5 91v281q0 8 -5.5 14t-14 10.5t-18.5 8t-18 7.5v8h161v-8q-9 -4 -19 -7.5t-18.5 -8t-14 -10.5t-5.5 -14v-282zM215 730l56 57l96 -124l-28 -28z" />
    <glyph glyph-name="uacute" unicode="&#xfa;" horiz-adv-x="582" 
d="M515 230q0 -66 -16 -112t-45.5 -75t-71 -42t-91.5 -13q-51 0 -92 13t-70.5 42t-45.5 75t-16 112v282q0 8 -6 14t-14.5 10.5t-18.5 8t-18 7.5v8h258v-8q-9 -4 -19 -7.5t-18.5 -8t-14 -10.5t-5.5 -14v-281q0 -54 9.5 -91t26.5 -59t40.5 -31.5t51.5 -9.5q27 0 50.5 9.5
t41 31.5t27 59t9.5 91v281q0 8 -5.5 14t-14 10.5t-18.5 8t-18 7.5v8h161v-8q-9 -4 -19 -7.5t-18.5 -8t-14 -10.5t-5.5 -14v-282zM215 663l96 124l56 -57l-124 -95z" />
    <glyph glyph-name="ucircumflex" unicode="&#xfb;" horiz-adv-x="582" 
d="M515 230q0 -66 -16 -112t-45.5 -75t-71 -42t-91.5 -13q-51 0 -92 13t-70.5 42t-45.5 75t-16 112v282q0 8 -6 14t-14.5 10.5t-18.5 8t-18 7.5v8h258v-8q-9 -4 -19 -7.5t-18.5 -8t-14 -10.5t-5.5 -14v-281q0 -54 9.5 -91t26.5 -59t40.5 -31.5t51.5 -9.5q27 0 50.5 9.5
t41 31.5t27 59t9.5 91v281q0 8 -5.5 14t-14 10.5t-18.5 8t-18 7.5v8h161v-8q-9 -4 -19 -7.5t-18.5 -8t-14 -10.5t-5.5 -14v-282zM313 787l147 -152h-79l-89 93l-90 -93h-79l147 152h43z" />
    <glyph glyph-name="udieresis" unicode="&#xfc;" horiz-adv-x="582" 
d="M515 230q0 -66 -16 -112t-45.5 -75t-71 -42t-91.5 -13q-51 0 -92 13t-70.5 42t-45.5 75t-16 112v282q0 8 -6 14t-14.5 10.5t-18.5 8t-18 7.5v8h258v-8q-9 -4 -19 -7.5t-18.5 -8t-14 -10.5t-5.5 -14v-281q0 -54 9.5 -91t26.5 -59t40.5 -31.5t51.5 -9.5q27 0 50.5 9.5
t41 31.5t27 59t9.5 91v281q0 8 -5.5 14t-14 10.5t-18.5 8t-18 7.5v8h161v-8q-9 -4 -19 -7.5t-18.5 -8t-14 -10.5t-5.5 -14v-282zM170 698q0 22 13 35t35 13t35 -13t13 -35t-13 -35t-35 -13t-35 13t-13 35zM316 698q0 22 13 35t35 13t35 -13t13 -35t-13 -35t-35 -13t-35 13
t-13 35z" />
    <glyph glyph-name="yacute" unicode="&#xfd;" horiz-adv-x="635" 
d="M400 560h254v-8q-10 -3 -26 -6.5t-33 -8t-32 -10t-23 -12.5l-151 -189v-278q0 -8 5.5 -14t14 -10.5t18.5 -8t19 -7.5v-8h-258v8q8 4 18 7.5t18.5 8t14.5 10.5t6 14v230l-191 238q-13 12 -36 20.5t-38 15.5v8h321v-8q-8 -4 -19 -8.5t-20 -10t-15 -10.5t-5 -10l117 -146
l119 148q2 6 -6.5 11.5t-21.5 10t-27 8.5t-23 7v8zM241 663l96 124l56 -57l-124 -95z" />
    <glyph glyph-name="thorn" unicode="&#xfe;" horiz-adv-x="526" 
d="M10 8q8 4 18 7.5t18.5 8t14.5 10.5t6 14v464q0 8 -6 14t-14.5 10.5t-18.5 8t-18 7.5v8h258v-8q-9 -4 -19 -7.5t-18.5 -8t-14 -10.5t-5.5 -14v-62h43q123 0 182.5 -46.5t59.5 -123.5t-64.5 -123.5t-181.5 -46.5h-39v-62q0 -8 5.5 -14t14 -10.5t18.5 -8t19 -7.5v-8h-258v8z
M211 158h32q52 0 78.5 33t26.5 88t-26 89t-89 34h-22v-244z" />
    <glyph glyph-name="ydieresis" unicode="&#xff;" horiz-adv-x="635" 
d="M400 560h254v-8q-10 -3 -26 -6.5t-33 -8t-32 -10t-23 -12.5l-151 -189v-278q0 -8 5.5 -14t14 -10.5t18.5 -8t19 -7.5v-8h-258v8q8 4 18 7.5t18.5 8t14.5 10.5t6 14v230l-191 238q-13 12 -36 20.5t-38 15.5v8h321v-8q-8 -4 -19 -8.5t-20 -10t-15 -10.5t-5 -10l117 -146
l119 148q2 6 -6.5 11.5t-21.5 10t-27 8.5t-23 7v8zM196 698q0 22 13 35t35 13t35 -13t13 -35t-13 -35t-35 -13t-35 13t-13 35zM342 698q0 22 13 35t35 13t35 -13t13 -35t-13 -35t-35 -13t-35 13t-13 35z" />
    <glyph glyph-name="Dcroat" unicode="&#x110;" horiz-adv-x="719" 
d="M52 700h314q82 0 143 -25t101 -71t59.5 -111t19.5 -144t-22 -143t-64 -110t-103 -71t-139 -25h-309v10q11 5 23 9.5t23 10.5t18 13t7 17v238h-113v60h113v282q0 10 -7 17t-18 13t-23 11t-23 9v10zM303 60h54q37 0 64.5 20.5t46 58t27.5 90.5t9 118t-8.5 119t-27.5 92.5
t-50 60t-75 21.5h-40v-282h101v-60h-101v-238z" />
    <glyph glyph-name="dcroat" unicode="&#x111;" horiz-adv-x="575" 
d="M35 560h251q66 0 114.5 -20t80.5 -57t48 -89t16 -115t-17.5 -114.5t-51.5 -88t-83 -56.5t-111 -20h-247v8q8 4 18 7.5t18.5 8t14.5 10.5t6 14v190h-82v60h82v214q0 8 -6 14t-14.5 10.5t-18.5 8t-18 7.5v8zM236 48h43q29 0 51 16.5t37 46.5t22.5 72.5t7.5 94.5t-7 95
t-22.5 74t-40 48t-59.5 17h-32v-214h116v-60h-116v-190z" />
    <glyph glyph-name="dotlessi" unicode="&#x131;" horiz-adv-x="278" 
d="M10 560h258v-8q-9 -4 -19 -7.5t-18.5 -8t-14 -10.5t-5.5 -14v-464q0 -8 5.5 -14t14 -10.5t18.5 -8t19 -7.5v-8h-258v8q8 4 18 7.5t18.5 8t14.5 10.5t6 14v464q0 8 -6 14t-14.5 10.5t-18.5 8t-18 7.5v8z" />
    <glyph glyph-name="Lslash" unicode="&#x141;" horiz-adv-x="603" 
d="M28 700h322v-10l-22.5 -9t-23.5 -11t-18 -13t-7 -17v-234l71 41l30 -52l-101 -58v-277h194q10 0 25 16.5t30 38.5t28 44t17 32h10l-50 -251l-505 60v10q11 5 23 9.5t23 10.5t18 13t7 17v174l-60 -34l-29 52l89 51v337q0 10 -7 17t-18 13t-23 11t-23 9v10z" />
    <glyph glyph-name="lslash" unicode="&#x142;" horiz-adv-x="491" 
d="M27 560h258v-8q-9 -4 -19 -7.5t-18.5 -8t-14 -10.5t-5.5 -14v-163l34 19l28 -53l-62 -34v-233h155q8 0 20 13t24 30.5t22 35t14 26.5h8l-40 -153h-404v8q8 4 18 7.5t18.5 8t14.5 10.5t6 14v155l-45 -25l-29 52l74 41v241q0 8 -6 14t-14.5 10.5t-18.5 8t-18 7.5v8z" />
    <glyph glyph-name="OE" unicode="&#x152;" horiz-adv-x="917" 
d="M867 509q-4 11 -12 32.5t-17.5 43.5t-20 38.5t-20.5 16.5h-204v-257h149q10 0 15.5 8t8.5 21.5t4 30t2 32.5h10l40 -244h-10q-4 11 -12 26.5t-17.5 30t-20 25t-20.5 10.5h-149v-263h224q10 0 20.5 16.5t20 38.5t17.5 44t12 32h10l-20 -191h-545q-72 0 -128.5 24t-95 69
t-58.5 110t-20 147t24 147t65.5 110t97 69t118.5 24h522l20 -191h-10zM413 65v575h-70q-23 0 -46 -20t-41 -57.5t-29.5 -91t-11.5 -120.5q0 -137 36 -211.5t103 -74.5h59z" />
    <glyph glyph-name="oe" unicode="&#x153;" horiz-adv-x="744" 
d="M699.59 407.193q-3.2002 8.80078 -9.60059 26q-6.39941 17.2002 -13.999 34.7998q-7.60059 17.5996 -16 30.7988q-8.40039 13.2002 -16.4004 13.2002h-163.197v-205.597h119.198q8 0 12.4004 6.39941q4.39941 6.40039 6.7998 17.2002q2.39941 10.7998 3.19922 23.999
q0.800781 13.2002 1.60059 26h8l31.999 -195.197h-8q-3.19922 8.7998 -9.59961 21.2002q-6.40039 12.3994 -14 23.999q-7.59961 11.6006 -16 20q-8.39941 8.40039 -16.3994 8.40039h-119.198v-210.397h179.197q8 0 16.4004 13.2002q8.39941 13.1992 15.999 30.7998
q7.60059 17.5996 14 35.1992q6.40039 17.5996 9.59961 25.5996h8l-16 -152.798h-435.993q-57.5986 0 -102.798 19.1992q-45.1992 19.2002 -75.999 55.1992q-30.7998 36 -46.7998 87.999q-15.999 51.999 -15.999 117.599q0 65.5986 19.1992 117.598
q19.2002 51.999 52.3994 87.999q33.1992 35.999 77.5986 55.1992q44.3994 19.1992 94.7988 19.1992h417.594l15.999 -152.798h-7.99902zM336.395 51.999v459.993h-55.999q-18.3994 0 -36.7988 -16q-18.4004 -16 -32.7998 -45.999q-14.3994 -30 -23.5996 -72.7988
q-9.2002 -42.7998 -9.2002 -96.3984q0 -109.599 28.7998 -169.197q28.7998 -59.5996 82.3984 -59.5996h47.1992z" />
    <glyph glyph-name="Scaron" unicode="&#x160;" horiz-adv-x="605" 
d="M38 513q0 52 22 90t60 63t89 37t109 12q68 0 116.5 -20.5t94.5 -53.5l20 -191h-10q-4 11 -12.5 31.5t-18 43t-20.5 44t-21 33.5q-29 20 -66.5 34t-91.5 14q-55 0 -89.5 -23t-34.5 -65q0 -24 11.5 -42.5t31.5 -32t48.5 -23.5t62.5 -18q77 -18 123.5 -45t71.5 -58.5
t33 -65.5t8 -66q0 -61 -22 -104t-62 -70t-96.5 -39.5t-125.5 -12.5q-37 0 -66 5.5t-54 15t-47 23.5t-46 30l-20 191h10q5 -10 13 -31t17.5 -43.5t20.5 -44t21 -33.5q29 -20 64 -34t85 -14q28 0 55.5 7.5t49 22t35 34.5t13.5 44t-10.5 40.5t-29 28t-43.5 20t-53 17.5
q-66 21 -113 48.5t-76.5 59.5t-43 68t-13.5 73zM138 942h79l90 -93l89 93h79l-147 -152h-43z" />
    <glyph glyph-name="scaron" unicode="&#x161;" horiz-adv-x="491" 
d="M31 410q0 42 17.5 72.5t48 50.5t71.5 29.5t87 9.5q55 0 93.5 -16.5t75.5 -42.5l16 -153h-8q-3 8 -9.5 23.5t-14 33.5t-15.5 35.5t-16 27.5q-23 17 -53.5 28.5t-75.5 11.5q-44 0 -71.5 -18.5t-27.5 -51.5q0 -39 34 -59.5t89 -33.5q62 -14 99 -36t57 -47.5t26.5 -52.5
t6.5 -52q0 -49 -17.5 -83.5t-50 -56t-77.5 -31.5t-100 -10q-30 0 -53 4.5t-43 12t-37.5 18.5t-36.5 24l-16 153h8q3 -8 9.5 -23.5t14 -33.5t16 -35t15.5 -28q23 -17 52 -28.5t70 -11.5q23 0 44.5 6t39 17.5t28 27.5t10.5 35q0 20 -8.5 33t-23.5 22.5t-34.5 16t-42.5 13.5
q-106 33 -151.5 86.5t-45.5 112.5zM78 799h79l90 -93l89 93h79l-147 -152h-43z" />
    <glyph glyph-name="Ydieresis" unicode="&#x178;" horiz-adv-x="783" 
d="M495 700h318v-10q-12 -4 -32 -8.5t-41 -10t-40 -12.5t-29 -15l-190 -236v-348q0 -10 7 -17t18 -13t23.5 -10.5t22.5 -9.5v-10h-322v10q11 5 23 9.5t23 10.5t18 13t7 17v288l-239 298q-17 15 -44.5 25.5t-47.5 18.5v10h401v-10q-10 -4 -24 -10.5t-25.5 -13.5t-18.5 -13.5
t-4 -12.5l145 -181l148 184q4 8 -6 14.5t-26.5 12.5t-34.5 11t-30 9v10zM271 838q0 22 13 35t35 13t35 -13t13 -35t-13 -35t-35 -13t-35 13t-13 35zM417 838q0 22 13 35t35 13t35 -13t13 -35t-13 -35t-35 -13t-35 13t-13 35z" />
    <glyph glyph-name="Zcaron" unicode="&#x17d;" horiz-adv-x="580" 
d="M30 509l20 191h500v-60l-311 -580h231q10 0 20.5 16.5t20 38.5t17.5 44t12 32h10l-20 -191h-500v60l311 580h-231q-10 0 -20.5 -16.5t-20 -38.5t-17 -43.5t-12.5 -32.5h-10zM122 927h79l90 -93l89 93h79l-147 -152h-43z" />
    <glyph glyph-name="zcaron" unicode="&#x17e;" horiz-adv-x="476" 
d="M30 407l16 153h400v-48l-249 -464h185q8 0 16.5 13t16 30.5t13.5 35t10 26.5h8l-16 -153h-400v48l249 464h-185q-8 0 -16.5 -13t-16 -30.5t-13.5 -35t-10 -26.5h-8zM70 787h79l90 -93l89 93h79l-147 -152h-43z" />
    <glyph glyph-name="circumflex" unicode="&#x2c6;" horiz-adv-x="397" 
d="M220 712l147 -152h-79l-89 93l-90 -93h-79l147 152h43z" />
    <glyph glyph-name="caron" unicode="&#x2c7;" horiz-adv-x="397" 
d="M30 712h79l90 -93l89 93h79l-147 -152h-43z" />
    <glyph glyph-name="ring" unicode="&#x2da;" horiz-adv-x="294" 
d="M30 660q0 43 32 69t85 26t85 -26t32 -69t-32 -69t-85 -26t-85 26t-32 69zM100 664q0 -19 13.5 -29t33.5 -10q21 0 34 10t13 29t-13 30t-34 11q-20 0 -33.5 -11t-13.5 -30z" />
    <glyph glyph-name="tilde" unicode="&#x2dc;" horiz-adv-x="383" 
d="M30 575q0 67 30.5 98t75.5 31q31 0 47.5 -13t26.5 -29t19 -29t25 -13q20 0 29.5 15t9.5 51h60q0 -22 -7 -44.5t-20 -40.5t-31 -29.5t-41 -11.5q-31 0 -49.5 13t-30.5 29t-21.5 29t-23.5 13q-19 0 -29 -16t-10 -53h-60z" />
    <glyph glyph-name="gravecomb" unicode="&#x300;" 
d="M-76 655l56 57l96 -124l-28 -28z" />
    <glyph glyph-name="acutecomb" unicode="&#x301;" 
d="M-76 588l96 124l56 -57l-124 -95z" />
    <glyph glyph-name="uni0302" unicode="&#x302;" 
d="M22 712l147 -152h-79l-89 93l-90 -93h-79l147 152h43z" />
    <glyph glyph-name="tildecomb" unicode="&#x303;" 
d="M-161 575q0 67 30.5 98t75.5 31q31 0 47.5 -13t26.5 -29t19 -29t25 -13q20 0 29.5 15t9.5 51h60q0 -22 -7 -44.5t-20 -40.5t-31 -29.5t-41 -11.5q-31 0 -49.5 13t-30.5 29t-21.5 29t-23.5 13q-19 0 -29 -16t-10 -53h-60z" />
    <glyph glyph-name="uni0308" unicode="&#x308;" 
d="M-121 623q0 22 13 35t35 13t35 -13t13 -35t-13 -35t-35 -13t-35 13t-13 35zM25 623q0 22 13 35t35 13t35 -13t13 -35t-13 -35t-35 -13t-35 13t-13 35z" />
    <glyph glyph-name="uni030A" unicode="&#x30a;" 
d="M-117 660q0 43 32 69t85 26t85 -26t32 -69t-32 -69t-85 -26t-85 26t-32 69zM-47 664q0 -19 13.5 -29t33.5 -10q21 0 34 10t13 29t-13 30t-34 11q-20 0 -33.5 -11t-13.5 -30z" />
    <glyph glyph-name="uni030C" unicode="&#x30c;" 
d="M-168 712h79l90 -93l89 93h79l-147 -152h-43z" />
    <glyph glyph-name="uni0327" unicode="&#x327;" 
d="M22 -40q45 0 70.5 -24.5t25.5 -69.5q0 -32 -13.5 -53t-33 -33t-41.5 -17t-39 -5q-26 0 -56.5 9.5t-52.5 25.5l34 48q17 -10 36 -16.5t39 -6.5q30 0 48.5 12t18.5 36q0 18 -9.5 26t-35.5 8q-11 0 -20 -1t-19 -2.5t-21.5 -3.5t-28.5 -5l51 112h70z" />
    <glyph glyph-name="endash" unicode="&#x2013;" horiz-adv-x="460" 
d="M30 285h400v-60h-400v60z" />
    <glyph glyph-name="emdash" unicode="&#x2014;" horiz-adv-x="800" 
d="M30 285h740v-60h-740v60z" />
    <glyph glyph-name="quoteleft" unicode="&#x2018;" horiz-adv-x="188" 
d="M158 544q0 -29 -17.5 -46.5t-46.5 -17.5t-46.5 17.5t-17.5 46.5q0 47 23.5 90.5t57.5 73.5l17 -14q-15 -21 -22.5 -40.5t-9.5 -45.5q28 -2 45 -19t17 -45z" />
    <glyph glyph-name="quoteright" unicode="&#x2019;" horiz-adv-x="188" 
d="M30 644q0 29 17.5 46.5t46.5 17.5t46.5 -17.5t17.5 -46.5q0 -47 -23.5 -90.5t-57.5 -73.5l-17 14q15 21 22.5 40.5t9.5 45.5q-28 2 -45 19t-17 45z" />
    <glyph glyph-name="quotesinglbase" unicode="&#x201a;" horiz-adv-x="188" 
d="M30 52q0 29 17.5 46.5t46.5 17.5t46.5 -17.5t17.5 -46.5q0 -47 -23.5 -90.5t-57.5 -73.5l-17 14q15 21 22.5 40.5t9.5 45.5q-28 2 -45 19t-17 45z" />
    <glyph glyph-name="quotedblleft" unicode="&#x201c;" horiz-adv-x="369" 
d="M339 544q0 -29 -17.5 -46.5t-46.5 -17.5t-46.5 17.5t-17.5 46.5q0 47 23.5 90.5t57.5 73.5l17 -14q-15 -21 -22.5 -40.5t-9.5 -45.5q28 -2 45 -19t17 -45zM158 544q0 -29 -17.5 -46.5t-46.5 -17.5t-46.5 17.5t-17.5 46.5q0 47 23.5 90.5t57.5 73.5l17 -14
q-15 -21 -22.5 -40.5t-9.5 -45.5q28 -2 45 -19t17 -45z" />
    <glyph glyph-name="quotedblright" unicode="&#x201d;" horiz-adv-x="369" 
d="M30 644q0 29 17.5 46.5t46.5 17.5t46.5 -17.5t17.5 -46.5q0 -47 -23.5 -90.5t-57.5 -73.5l-17 14q15 21 22.5 40.5t9.5 45.5q-28 2 -45 19t-17 45zM211 644q0 29 17.5 46.5t46.5 17.5t46.5 -17.5t17.5 -46.5q0 -47 -23.5 -90.5t-57.5 -73.5l-17 14q15 21 22.5 40.5
t9.5 45.5q-28 2 -45 19t-17 45z" />
    <glyph glyph-name="quotedblbase" unicode="&#x201e;" horiz-adv-x="369" 
d="M30 52q0 29 17.5 46.5t46.5 17.5t46.5 -17.5t17.5 -46.5q0 -47 -23.5 -90.5t-57.5 -73.5l-17 14q15 21 22.5 40.5t9.5 45.5q-28 2 -45 19t-17 45zM211 52q0 29 17.5 46.5t46.5 17.5t46.5 -17.5t17.5 -46.5q0 -47 -23.5 -90.5t-57.5 -73.5l-17 14q15 21 22.5 40.5
t9.5 45.5q-28 2 -45 19t-17 45z" />
    <glyph glyph-name="Euro" unicode="&#x20ac;" horiz-adv-x="665" 
d="M421 -14q-59 0 -110.5 16t-93 46.5t-71.5 75t-46 102.5h-90v60h78q-2 17 -3 35t-1 35h-74v60h78q9 68 35.5 123.5t69 94.5t99.5 60t127 21q57 0 102.5 -20.5t92.5 -53.5l20 -191h-10q-4 11 -12.5 31.5t-18 43t-20.5 44t-21 33.5q-28 20 -59.5 34t-75.5 14
q-31 0 -56 -16.5t-43.5 -47t-30 -74t-15.5 -96.5h136v-60h-139q0 -35 3 -70h136v-60h-126q20 -84 62 -129t96 -45q35 0 65 13t58 33q10 12 21 33.5t20.5 44t18 43.5t12.5 31h10l-20 -191q-23 -16 -45 -29.5t-46 -23.5t-51.5 -15t-61.5 -5z" />
    <glyph glyph-name="minus" unicode="&#x2212;" horiz-adv-x="340" 
d="M30 285h280v-60h-280v60z" />
    <glyph glyph-name="s_t" unicode="&#xfb06;" horiz-adv-x="866" 
d="M838 407q-4 9 -10 26.5t-13.5 35t-16 30.5t-16.5 13h-104v-464q0 -8 5.5 -14t14 -10.5t18.5 -8t19 -7.5v-8h-258v8q9 4 19 7.5t18.5 8t14 10.5t5.5 14v464h-103q-8 0 -16.5 -13t-16 -30.5t-14 -35t-10.5 -26.5h-8l8 75q-23 17 -53 27.5t-73 10.5q-44 0 -71.5 -18.5
t-27.5 -51.5q0 -39 34 -59.5t89 -33.5q62 -14 99 -36t57 -47.5t26.5 -52.5t6.5 -52q0 -49 -17.5 -83.5t-50 -56t-77.5 -31.5t-100 -10q-30 0 -53 4.5t-43 12t-37.5 18.5t-36.5 24l-16 153h8q3 -8 9.5 -23.5t14 -33.5t16 -35t15.5 -28q23 -17 52 -28.5t70 -11.5q23 0 44.5 6
t39 17.5t28 27.5t10.5 35q0 20 -8.5 33t-23.5 22.5t-34.5 16t-42.5 13.5q-106 33 -151.5 86.5t-45.5 112.5q0 42 17.5 72.5t48 50.5t71.5 29.5t87 9.5q35 0 67.5 -2.5t61.5 -9.5h446l16 -153h-8z" />
    <glyph glyph-name="O.ss01" horiz-adv-x="688" 
d="M312 715h64l292 -329v-72l-292 -329h-64l-292 329v72zM343 200l127 151l-125 150l-127 -152z" />
    <glyph glyph-name="T_H" horiz-adv-x="1194" 
d="M159 -105q11 4 23 11.5t23 16t18 18t7 19.5v680h-129q-10 0 -20.5 -16.5t-20 -38.5t-17.5 -43.5t-13 -32.5h-10l20 191h768v-10l-22.5 -9t-23.5 -11t-18 -13t-7 -17v-236h196v236q0 10 -7 17t-18 13t-23 11t-23 9v10h322v-10l-22.5 -9t-23.5 -11t-18 -13t-7 -17v-760
q0 -10 7 -17t18 -13t23.5 -11l22.5 -9v-10h-322v10q11 4 23 9t23 11t18 13t7 17v464h-196v-284q0 -10 7 -17t18 -13t23.5 -10.5t22.5 -9.5v-10h-322v10q11 5 23 9.5t23 10.5t18 13t7 17v580h-147v-630q0 -10 7 -17t18 -13t23.5 -11l22.5 -9v-10l-322 -65v10z" />
    <glyph glyph-name="S_T" horiz-adv-x="1065" 
d="M38 513q0 52 22 90t60 63t89 37t109 12q42 0 81.5 -4t72.5 -11h553l20 -191h-10q-4 11 -12 32.5t-17.5 43.5t-20 38.5t-20.5 16.5h-130v-630q0 -10 7 -17t18 -13t23.5 -11l22.5 -9v-10l-322 -65v10q11 4 23 11.5t23 16t18 18t7 19.5v680h-129q-10 0 -20.5 -16.5
t-20 -38.5t-17.5 -43.5t-13 -32.5h-10l11 101q-28 17 -63.5 28.5t-83.5 11.5q-55 0 -89.5 -23t-34.5 -65q0 -24 11.5 -42.5t31.5 -32t48.5 -23.5t62.5 -18q77 -18 123.5 -45t71.5 -58.5t33 -65.5t8 -66q0 -61 -22 -104t-62 -70t-96.5 -39.5t-125.5 -12.5q-37 0 -66 5.5
t-54 15t-47 23.5t-46 30l-20 191h10q5 -10 13 -31t17.5 -43.5t20.5 -44t21 -33.5q29 -20 64 -34t85 -14q28 0 55.5 7.5t49 22t35 34.5t13.5 44t-10.5 40.5t-29 28t-43.5 20t-53 17.5q-66 21 -113 48.5t-76.5 59.5t-43 68t-13.5 73z" />
    <glyph glyph-name="T_T" horiz-adv-x="1090" 
d="M1060 509q-4 11 -12 32.5t-17.5 43.5t-20 38.5t-20.5 16.5h-130v-630q0 -10 7 -17t18 -13t23.5 -11l22.5 -9v-10l-322 -65v10q11 4 23 11.5t23 16t18 18t7 19.5v680h-270v-580q0 -10 7 -17t18 -13t23.5 -10.5t22.5 -9.5v-10h-322v10q11 5 23 9.5t23 10.5t18 13t7 17v580
h-129q-10 0 -20.5 -16.5t-20 -38.5t-17.5 -43.5t-13 -32.5h-10l20 191h1010l20 -191h-10z" />
    <glyph glyph-name="F_T" horiz-adv-x="1031" 
d="M10 10q11 5 23 9.5t23 10.5t18 13t7 17v580q0 10 -7 17t-18 13t-23 11t-23 9v10h981l20 -191h-10q-4 11 -12 32.5t-17.5 43.5t-20 38.5t-20.5 16.5h-130v-630q0 -10 7 -17t18 -13t23.5 -11l22.5 -9v-10l-322 -65v10q11 4 23 11.5t23 16t18 18t7 19.5v680h-360v-257h139
q10 0 15.5 8t8.5 21.5t4 30t2 32.5h10l40 -244h-10q-4 11 -12 26.5t-17.5 30t-20 25t-20.5 10.5h-139v-263q0 -10 7 -17t18 -13t23.5 -10.5t22.5 -9.5v-10h-322v10z" />
    <glyph glyph-name="C_T" horiz-adv-x="1109" 
d="M367 -14q-73 0 -135 24.5t-107 71t-70 114t-25 154.5q0 82 23 149.5t66.5 115.5t105.5 74t140 26q34 0 72 -3t75 -12h557l20 -191h-10q-4 11 -12 32.5t-17.5 43.5t-20 38.5t-20.5 16.5h-130v-630q0 -10 7 -17t18 -13t23.5 -11l22.5 -9v-10l-322 -65v10q11 4 23 11.5
t23 16t18 18t7 19.5v680h-127l-22 -16q-7 -11 -14.5 -27.5t-14.5 -33.5t-12.5 -31.5t-9.5 -22.5h-10l10 93q-28 20 -59.5 34t-76.5 14q-35 0 -62.5 -21.5t-46.5 -61t-29 -94.5t-10 -122q0 -70 13.5 -126t37 -94t54.5 -58.5t66 -20.5t65 13t58 33q10 12 21 33.5t20.5 44
t18 43.5t12.5 31h10l-20 -191q-23 -16 -45 -29.5t-46 -23.5t-51.5 -15t-61.5 -5z" />
    <glyph glyph-name="L_A" horiz-adv-x="992" 
d="M10 700h322v-10l-22.5 -9t-23.5 -11t-18 -13t-7 -17v-580h93l198 583q1 9 -5.5 15.5t-17 12t-23 10.5l-22.5 9v10h267l226 -828q10 -16 31 -25t40 -17v-10h-322v10q11 4 23.5 9t23.5 11t17 13.5t3 16.5h2l-95 348h-225l-57 -168h37q10 0 25 16.5t30 38.5t28 44t17 32h10
l-50 -251l-505 60v10q11 5 23 9.5t23 10.5t18 13t7 17v580q0 10 -7 17t-18 13t-23 11t-23 9v10zM496 288h187l-83 307z" />
    <glyph glyph-name="T_F" horiz-adv-x="1013" 
d="M159 -105q11 4 23 11.5t23 16t18 18t7 19.5v680h-129q-10 0 -20.5 -16.5t-20 -38.5t-17.5 -43.5t-13 -32.5h-10l20 191h933l20 -191h-10q-4 11 -12 32.5t-17.5 43.5t-20 38.5t-20.5 16.5h-194v-257h139q10 0 15.5 8t8.5 21.5t4 30t2 32.5h10l40 -244h-10q-4 11 -12 26.5
t-17.5 30t-20 25t-20.5 10.5h-139v-263q0 -10 7 -17t18 -13t23.5 -10.5t22.5 -9.5v-10h-322v10q11 5 23 9.5t23 10.5t18 13t7 17v580h-129v-630q0 -10 7 -17t18 -13t23.5 -11l22.5 -9v-10l-322 -65v10z" />
    <glyph glyph-name="t_h" horiz-adv-x="978" 
d="M131 8q9 4 19 7.5t18.5 8t14 10.5t5.5 14v464h-103q-8 0 -16.5 -13t-16 -30.5t-14 -35t-10.5 -26.5h-8l16 153h632v-8q-9 -4 -19 -7.5t-18.5 -8t-14 -10.5t-5.5 -14v-189h157v189q0 8 -6 14t-14.5 10.5t-18.5 8t-18 7.5v8h257v-8q-8 -4 -18 -7.5t-18.5 -8t-14 -10.5
t-5.5 -14v-464q0 -8 5.5 -14t14 -10.5t18.5 -8t18 -7.5v-8h-257v8q8 4 18 7.5t18.5 8t14.5 10.5t6 14v227h-157v-227q0 -8 5.5 -14t14 -10.5t18.5 -8t19 -7.5v-8h-258v8q8 4 18 7.5t18.5 8t14.5 10.5t6 14v464h-135v-464q0 -8 5.5 -14t14 -10.5t18.5 -8t19 -7.5v-8h-258v8z
" />
    <glyph glyph-name="t_t" horiz-adv-x="844" 
d="M131 8q9 4 19 7.5t18.5 8t14 10.5t5.5 14v464h-103q-8 0 -16.5 -13t-16 -30.5t-14 -35t-10.5 -26.5h-8l16 153h772l16 -153h-8q-4 9 -10 26.5t-13.5 35t-16 30.5t-16.5 13h-104v-464q0 -8 5.5 -14t14 -10.5t18.5 -8t19 -7.5v-8h-258v8q9 4 19 7.5t18.5 8t14 10.5t5.5 14
v464h-180v-464q0 -8 5.5 -14t14 -10.5t18.5 -8t19 -7.5v-8h-258v8z" />
    <glyph glyph-name="t_f" horiz-adv-x="848" 
d="M131 8q9 4 19 7.5t18.5 8t14 10.5t5.5 14v464h-103q-8 0 -16.5 -13t-16 -30.5t-14 -35t-10.5 -26.5h-8l16 153h776l16 -153h-8q-4 9 -10 26.5t-13.5 35t-16 30.5t-16.5 13h-155v-206h111q8 0 12.5 6.5t6.5 17t3 24t2 26.5h8l32 -195h-8q-4 9 -10 21.5t-13.5 24t-16 19.5
t-16.5 8h-111v-210q0 -8 5.5 -14t14 -10.5t18.5 -8t19 -7.5v-8h-258v8q8 4 18 7.5t18.5 8t14.5 10.5t6 14v464h-133v-464q0 -8 5.5 -14t14 -10.5t18.5 -8t19 -7.5v-8h-258v8z" />
    </font>
</defs>
</svg>
